{"glyphs":{"0":{"ha":793,"x_min":42,"x_max":750,"o":"m 42 535 l 42 410 q 65 235 42 313 q 133 101 88 157 q 244 16 178 46 q 397 -14 310 -14 q 549 16 483 -14 q 660 101 615 46 q 727 235 704 157 q 750 410 750 314 l 750 535 q 727 710 750 632 q 660 844 704 789 q 549 928 615 899 q 397 958 483 958 q 244 928 310 958 q 133 844 178 899 q 65 710 88 789 q 42 535 42 632 m 125 535 q 140 672 125 610 q 188 780 156 735 q 273 850 221 825 q 397 875 325 875 q 521 850 469 875 q 605 780 572 825 q 653 672 638 735 q 668 535 668 610 l 668 410 q 653 272 668 335 q 605 165 638 210 q 521 94 572 119 q 397 69 469 69 q 273 94 325 69 q 188 165 221 119 q 140 272 156 210 q 125 410 125 335 l 125 535 m 197 65 l 286 65 l 596 879 l 504 879 l 197 65 z "},"1":{"ha":792,"x_min":42,"x_max":750,"o":"m 42 0 l 750 0 l 750 83 l 42 83 l 42 0 m 354 64 l 438 64 l 438 944 l 354 944 l 354 64 m 131 569 q 251 585 204 569 q 325 635 299 600 q 361 724 351 669 q 371 857 371 778 l 354 944 q 349 792 354 850 q 322 704 344 735 q 254 663 300 674 q 126 653 208 653 l 56 653 l 56 569 l 131 569 z "},"2":{"ha":792,"x_min":42,"x_max":750,"o":"m 42 1 l 750 1 l 750 85 l 42 85 l 42 1 m 153 582 q 167 699 153 644 q 211 792 182 753 q 285 853 240 831 q 389 875 329 875 q 581 815 508 875 q 653 624 653 756 q 613 492 653 542 q 513 409 574 442 q 378 352 451 376 q 238 295 306 328 q 116 214 169 263 q 42 85 63 165 l 125 71 q 199 170 146 132 q 321 237 253 208 q 462 293 389 265 q 596 361 535 321 q 697 464 657 401 q 736 624 736 526 q 711 769 736 707 q 641 874 686 832 q 532 938 596 917 q 390 958 468 958 q 253 930 313 958 q 152 851 193 901 q 90 731 111 800 q 69 582 69 663 l 153 582 z "},"3":{"ha":794,"x_min":40,"x_max":750,"o":"m 394 547 q 653 481 556 547 q 750 282 750 414 q 653 67 750 147 q 394 -14 556 -14 q 138 67 236 -14 q 40 301 40 147 l 124 301 q 191 128 124 188 q 394 69 258 69 q 599 128 531 69 q 667 301 667 188 q 593 430 667 382 q 394 478 519 478 l 333 478 l 333 547 l 394 547 m 81 693 q 102 806 81 757 q 165 890 124 856 q 264 941 206 924 q 394 958 322 958 q 624 890 540 958 q 707 703 707 821 q 683 608 707 649 q 615 539 658 567 q 515 497 572 511 q 394 482 458 482 l 394 492 l 394 500 l 394 547 q 565 591 507 547 q 622 693 622 635 q 566 830 622 785 q 394 875 510 875 q 222 829 279 875 q 164 693 164 783 l 81 693 z "},"4":{"ha":793,"x_min":43,"x_max":751,"o":"m 500 0 l 583 0 l 583 944 l 500 944 l 500 0 m 43 251 l 751 251 l 751 335 l 43 335 l 43 251 m 431 944 l 43 343 l 43 321 l 128 321 l 524 933 l 524 944 l 431 944 z "},"5":{"ha":794,"x_min":42,"x_max":689,"o":"m 42 283 q 142 65 58 143 q 363 -14 225 -14 q 601 82 514 -14 q 689 347 689 178 q 663 485 689 431 q 595 570 638 539 q 499 613 553 601 q 389 625 446 625 q 283 614 333 625 q 190 578 232 603 q 119 515 149 554 q 78 421 90 476 l 125 421 q 138 458 128 436 q 174 501 149 481 q 246 535 200 521 q 363 549 292 549 q 461 540 417 549 q 538 510 506 532 q 588 449 569 488 q 606 347 606 410 q 543 141 606 213 q 363 69 481 69 q 203 121 267 69 q 125 283 139 172 l 42 283 m 642 860 l 642 943 l 114 943 l 114 860 l 642 860 m 47 463 l 76 421 l 125 421 l 199 943 l 114 943 l 47 463 z "},"6":{"ha":794,"x_min":43,"x_max":744,"o":"m 744 299 q 720 173 744 231 q 651 74 696 115 q 542 9 606 32 q 397 -14 478 -14 q 244 16 311 -14 q 133 101 178 46 q 66 235 89 157 q 43 410 43 313 l 43 535 q 66 710 43 632 q 133 844 89 789 q 244 928 178 899 q 397 958 311 958 q 540 933 478 958 q 644 865 601 908 q 709 761 688 821 q 731 632 731 701 l 647 632 q 585 807 647 739 q 397 875 524 875 q 194 787 263 875 q 125 535 125 699 l 125 410 q 194 157 125 244 q 397 69 263 69 q 592 131 522 69 q 661 299 661 193 q 602 455 661 399 q 404 511 543 511 q 286 494 339 511 q 198 446 233 476 q 147 373 163 415 q 138 281 131 331 l 100 367 q 122 448 100 407 q 187 522 144 489 q 290 574 229 554 q 431 594 351 594 q 569 572 510 594 q 667 509 628 549 q 726 416 707 469 q 744 299 744 363 z "},"7":{"ha":794,"x_min":42,"x_max":750,"o":"m 42 861 l 750 861 l 750 944 l 42 944 l 42 861 m 42 667 l 125 667 l 125 913 l 42 913 l 42 667 m 667 899 l 667 726 q 489 531 567 642 q 424 427 456 485 q 367 303 392 369 q 326 160 342 236 q 311 0 311 83 l 394 0 q 410 155 394 82 q 450 292 425 228 q 507 410 475 356 q 572 508 539 464 q 750 689 650 611 l 750 897 l 667 899 z "},"8":{"ha":794,"x_min":42,"x_max":750,"o":"m 42 282 q 139 67 42 147 q 394 -14 236 -14 q 653 67 556 -14 q 750 282 750 147 q 653 481 750 414 q 394 547 556 547 q 139 481 236 547 q 42 282 42 414 m 124 301 q 197 430 124 382 q 394 478 269 478 q 593 430 519 478 q 667 301 667 382 q 599 128 667 188 q 394 69 531 69 q 191 128 258 69 q 124 301 124 188 m 82 703 q 106 608 82 649 q 174 539 131 567 q 274 497 217 511 q 394 482 331 482 q 515 497 458 482 q 615 539 572 511 q 683 608 658 567 q 707 703 707 649 q 624 890 707 821 q 394 958 540 958 q 165 890 249 958 q 82 703 82 821 m 164 693 q 222 829 164 783 q 394 875 279 875 q 566 830 510 875 q 622 693 622 785 q 565 591 622 635 q 394 547 507 547 q 223 591 282 547 q 164 693 164 635 z "},"9":{"ha":794,"x_min":43,"x_max":744,"o":"m 43 646 q 67 772 43 714 q 137 871 92 829 q 246 935 182 913 q 390 958 310 958 q 543 928 476 958 q 654 844 610 899 q 722 710 699 789 q 744 535 744 632 l 744 410 q 722 235 744 313 q 654 101 699 157 q 543 16 610 46 q 390 -14 476 -14 q 248 11 310 -14 q 144 80 186 36 q 79 183 101 124 q 57 313 57 243 l 140 313 q 202 138 140 206 q 390 69 264 69 q 594 158 525 69 q 663 410 663 246 l 663 535 q 594 788 663 700 q 390 875 525 875 q 196 813 265 875 q 126 646 126 751 q 185 490 126 546 q 383 433 244 433 q 501 451 449 433 q 590 499 554 468 q 641 572 625 529 q 650 664 657 614 l 688 578 q 665 497 688 538 q 601 423 643 456 q 497 370 558 390 q 357 350 436 350 q 219 373 278 350 q 121 435 160 396 q 63 528 82 475 q 43 646 43 582 z "}," ":{"ha":361,"x_min":0,"x_max":0,"o":""},"n":{"ha":735,"x_min":42,"x_max":694,"o":"m 107 414 l 125 290 q 145 453 125 388 q 199 558 165 518 q 277 615 233 597 q 369 632 321 632 q 485 612 439 632 q 560 553 532 592 q 600 458 589 514 q 611 332 611 401 l 611 0 l 694 0 l 694 353 q 676 496 694 431 q 620 608 657 561 q 528 682 583 656 q 397 708 472 708 q 190 633 263 708 q 107 414 117 557 m 42 0 l 125 0 l 125 694 l 42 694 l 42 0 z "},"o":{"ha":736,"x_min":42,"x_max":693,"o":"m 693 347 q 606 612 693 515 q 367 708 519 708 q 128 612 215 708 q 42 347 42 515 q 128 82 42 178 q 367 -14 215 -14 q 606 82 519 -14 q 693 347 693 178 m 610 347 q 550 138 610 207 q 367 69 490 69 q 185 138 246 69 q 125 347 125 207 q 185 556 125 486 q 367 625 246 625 q 550 556 490 625 q 610 347 610 488 z "},"a":{"ha":792,"x_min":42,"x_max":693,"o":"m 565 428 l 565 140 q 567 80 565 106 q 579 36 569 54 q 609 9 589 18 q 667 0 629 0 l 693 0 l 693 97 l 649 97 l 649 407 q 632 528 649 472 q 582 624 615 583 q 497 686 549 664 q 372 708 444 708 q 242 685 299 708 q 149 624 186 661 q 92 540 111 586 q 74 450 74 494 l 157 450 q 175 522 157 490 q 223 577 193 554 q 290 613 253 600 q 367 625 328 625 q 513 574 461 625 q 565 428 565 524 m 601 433 q 525 429 564 432 q 450 424 490 426 q 371 418 410 421 q 256 405 314 415 q 149 371 197 394 q 72 306 101 347 q 42 200 42 265 q 97 47 42 107 q 261 -14 153 -14 q 452 19 381 -14 q 561 102 524 51 q 610 215 599 153 q 621 333 621 276 q 612 333 621 333 q 592 333 603 333 q 565 333 581 333 q 556 238 565 286 q 519 151 547 190 q 438 88 492 113 q 294 64 385 64 q 169 92 213 64 q 125 194 125 119 q 146 263 125 236 q 202 304 167 289 q 282 326 238 319 q 374 335 326 332 q 444 340 404 338 q 518 346 483 343 q 577 350 553 349 q 601 351 601 351 l 601 433 z "},"i":{"ha":739,"x_min":43,"x_max":696,"o":"m 43 0 l 696 0 l 696 83 l 43 83 l 43 0 m 411 50 l 411 481 q 365 644 411 593 q 217 694 318 694 l 43 694 l 43 611 l 258 611 q 295 609 282 611 q 316 599 308 607 q 326 577 324 592 q 328 538 328 563 l 328 50 l 411 50 m 307 768 l 432 768 l 432 903 l 307 903 l 307 768 z "},"e":{"ha":735,"x_min":42,"x_max":693,"o":"m 104 325 l 693 325 l 693 347 l 625 408 l 104 408 l 104 325 m 600 244 q 522 113 581 156 q 367 69 464 69 q 185 138 246 69 q 125 347 125 207 q 185 556 125 486 q 367 625 246 625 q 550 556 490 625 q 610 347 610 488 l 693 347 q 606 612 693 515 q 367 708 519 708 q 128 612 215 708 q 42 347 42 515 q 128 82 42 178 q 367 -14 215 -14 q 576 54 494 -14 q 683 244 658 122 l 600 244 z "},"p":{"ha":736,"x_min":42,"x_max":693,"o":"m 42 -264 l 125 -264 l 125 203 l 125 342 l 125 490 l 125 694 l 42 694 l 42 -264 m 693 347 q 671 497 693 431 q 609 611 649 564 q 515 683 569 658 q 394 708 460 708 q 251 681 308 708 q 160 603 194 653 q 112 488 126 554 q 97 347 97 422 q 112 205 97 271 q 160 90 126 139 q 251 14 194 42 q 394 -14 308 -14 q 515 11 460 -14 q 609 83 569 36 q 671 196 649 129 q 693 347 693 263 m 610 347 q 550 138 610 207 q 367 69 490 69 q 185 138 246 69 q 125 347 125 207 q 185 556 125 486 q 367 625 246 625 q 550 556 490 625 q 610 347 610 488 z "},"b":{"ha":736,"x_min":42,"x_max":693,"o":"m 42 1014 l 125 1014 l 125 492 l 125 353 l 125 204 l 125 0 l 42 0 l 42 1014 m 97 347 q 112 490 97 424 q 160 604 126 556 q 251 681 194 653 q 394 708 308 708 q 515 683 460 708 q 609 612 569 658 q 671 499 649 565 q 693 347 693 432 q 671 197 693 264 q 609 83 649 131 q 515 11 569 36 q 394 -14 460 -14 q 251 14 308 -14 q 160 91 194 42 q 112 206 126 140 q 97 347 97 272 m 125 347 q 185 139 125 208 q 367 69 246 69 q 550 138 490 69 q 610 347 610 207 q 550 556 610 488 q 367 625 490 625 q 185 556 246 625 q 125 347 125 488 z "},"c":{"ha":726,"x_min":42,"x_max":685,"o":"m 685 256 q 579 57 661 128 q 367 -14 497 -14 q 128 82 215 -14 q 42 347 42 178 q 128 612 42 515 q 367 708 215 708 q 576 640 494 708 q 683 450 658 572 l 599 450 q 522 582 579 539 q 367 625 464 625 q 185 556 246 625 q 125 347 125 486 q 185 138 125 207 q 367 69 246 69 q 526 115 468 69 q 601 256 583 161 l 685 256 z "},"d":{"ha":736,"x_min":42,"x_max":693,"o":"m 638 347 q 623 206 638 272 q 574 91 608 140 q 483 14 540 42 q 340 -14 426 -14 q 220 11 275 -14 q 126 83 165 36 q 64 197 86 131 q 42 347 42 264 q 64 499 42 432 q 126 612 86 565 q 220 683 165 658 q 340 708 275 708 q 483 681 426 708 q 575 604 540 653 q 624 490 610 556 q 638 347 638 424 m 610 347 q 550 556 610 488 q 368 625 490 625 q 185 556 246 625 q 125 347 125 488 q 185 138 125 207 q 368 69 246 69 q 549 139 489 69 q 610 347 610 208 m 693 0 l 610 0 l 610 204 l 610 353 l 610 492 l 610 1014 l 693 1014 l 693 0 z "},"l":{"ha":768,"x_min":43,"x_max":725,"o":"m 72 0 l 725 0 l 725 83 l 72 83 l 72 0 m 440 50 l 440 800 q 394 963 440 913 q 246 1014 347 1014 l 43 1014 l 43 931 l 288 931 q 324 928 311 931 q 345 919 338 926 q 355 897 353 911 q 357 857 357 882 l 357 50 l 440 50 z "},"h":{"ha":735,"x_min":42,"x_max":693,"o":"m 42 0 l 125 0 l 125 1014 l 42 1014 l 42 0 m 106 414 l 125 290 q 145 453 125 388 q 199 558 165 518 q 277 615 233 599 q 369 632 321 632 q 491 608 444 632 q 565 544 538 585 q 601 448 592 503 q 610 332 610 393 l 610 0 l 693 0 l 693 353 q 675 496 693 431 q 620 608 657 561 q 528 682 583 656 q 397 708 472 708 q 190 633 263 708 q 106 414 117 557 z "},"k":{"ha":792,"x_min":42,"x_max":750,"o":"m 42 0 l 125 0 l 125 1042 l 42 1042 l 42 0 m 722 694 l 593 694 l 86 272 l 86 164 l 722 694 m 750 0 l 392 442 l 329 388 l 643 0 l 750 0 z "},"m":{"ha":1056,"x_min":42,"x_max":1014,"o":"m 42 0 l 125 0 l 125 694 l 42 694 l 42 0 m 107 414 l 125 290 q 137 453 125 388 q 172 558 149 518 q 230 615 194 597 q 314 632 265 632 q 419 612 383 632 q 470 553 456 592 q 485 458 485 514 q 486 332 486 401 l 486 0 l 569 0 l 569 353 q 562 496 569 431 q 530 608 554 561 q 461 682 506 656 q 342 708 417 708 q 232 689 275 708 q 163 632 189 669 q 124 540 136 594 q 107 414 111 485 m 550 414 l 569 290 q 581 453 569 388 q 615 558 592 518 q 674 615 639 597 q 758 632 710 632 q 864 612 828 632 q 915 553 900 592 q 930 458 929 514 q 931 332 931 401 l 931 0 l 1014 0 l 1014 353 q 1006 496 1014 431 q 974 608 999 561 q 906 682 950 656 q 786 708 861 708 q 676 689 719 708 q 607 632 633 669 q 568 540 581 594 q 550 414 556 485 z "},"u":{"ha":736,"x_min":42,"x_max":694,"o":"m 694 694 l 597 694 l 597 0 l 694 0 l 694 694 m 617 281 l 597 404 q 579 244 597 307 q 530 143 561 181 q 457 91 499 106 q 367 76 415 76 q 253 94 297 76 q 183 149 208 113 q 148 239 157 185 q 139 363 139 293 l 139 694 l 42 694 l 42 342 q 60 199 42 264 q 116 86 79 133 q 208 13 153 39 q 339 -14 264 -14 q 540 62 474 -14 q 617 281 606 138 z "},"r":{"ha":739,"x_min":43,"x_max":697,"o":"m 697 0 l 43 0 l 43 83 l 697 83 l 697 0 m 263 50 l 263 694 q 299 694 283 694 q 324 694 313 694 q 335 694 335 694 l 346 492 l 346 50 l 263 50 m 310 611 l 43 611 l 43 694 l 310 694 l 310 611 m 569 694 l 697 694 l 697 611 l 574 611 q 446 601 492 611 q 378 560 400 592 q 351 472 356 529 q 346 319 346 414 l 329 408 q 339 540 329 486 q 376 629 349 594 q 449 679 403 664 q 569 694 496 694 z "},"f":{"ha":739,"x_min":43,"x_max":697,"o":"m 697 0 l 43 0 l 43 83 l 697 83 l 697 0 m 261 50 l 261 800 q 308 963 261 913 q 456 1014 354 1014 l 697 1014 l 697 931 l 415 931 q 378 928 392 931 q 357 919 364 926 q 347 897 350 911 q 344 857 344 882 l 344 50 l 261 50 m 697 611 l 43 611 l 43 694 l 697 694 l 697 611 z "},"s":{"ha":792,"x_min":42,"x_max":750,"o":"m 639 465 l 722 464 q 697 556 722 514 q 628 628 672 597 q 523 677 583 660 q 392 694 463 694 q 251 682 311 694 q 150 644 190 669 q 90 580 110 618 q 69 490 69 542 q 114 384 69 421 q 224 329 158 347 q 368 305 290 311 q 512 290 446 299 q 622 260 578 281 q 667 194 667 239 q 597 105 667 126 q 392 83 526 83 q 189 123 253 83 q 125 250 125 163 l 42 250 q 64 141 42 188 q 130 63 86 94 q 240 16 174 32 q 392 0 306 0 q 547 11 479 0 q 659 47 614 22 q 727 110 704 71 q 750 208 750 150 q 706 308 750 274 q 595 358 661 342 q 451 380 529 374 q 308 397 374 386 q 197 431 242 407 q 153 504 153 454 q 167 550 153 531 q 212 583 182 569 q 286 604 242 597 q 392 611 331 611 q 491 600 446 611 q 569 570 536 589 q 621 524 603 551 q 639 465 639 497 z "},"z":{"ha":792,"x_min":42,"x_max":750,"o":"m 718 694 l 42 83 l 42 0 l 74 0 l 750 611 l 750 694 l 718 694 m 42 694 l 42 611 l 750 611 l 750 694 l 42 694 m 750 83 l 42 83 l 42 0 l 750 0 l 750 83 z "},"q":{"ha":736,"x_min":42,"x_max":693,"o":"m 42 347 q 64 497 42 431 q 126 611 86 564 q 220 683 165 658 q 340 708 275 708 q 483 681 426 708 q 574 603 540 653 q 623 488 608 554 q 638 347 638 422 q 624 205 638 271 q 575 90 610 139 q 483 14 540 42 q 340 -14 426 -14 q 220 11 275 -14 q 126 83 165 36 q 64 196 86 129 q 42 347 42 263 m 125 347 q 185 138 125 207 q 368 69 246 69 q 550 138 490 69 q 610 347 610 207 q 549 556 610 486 q 368 625 489 625 q 185 556 246 625 q 125 347 125 488 m 693 -264 l 610 -264 l 610 203 l 610 342 l 610 490 l 610 694 l 693 694 l 693 -264 z "},"g":{"ha":736,"x_min":42,"x_max":693,"o":"m 610 203 l 610 342 l 610 490 l 610 694 l 693 694 l 693 -51 q 647 -213 693 -162 q 500 -264 601 -264 l 111 -264 l 111 -181 l 540 -181 q 578 -178 564 -181 q 599 -169 592 -176 q 608 -147 606 -161 q 610 -108 610 -132 l 610 203 m 42 347 q 64 497 42 431 q 126 611 86 564 q 220 683 165 658 q 340 708 275 708 q 483 681 426 708 q 574 603 540 653 q 623 488 608 554 q 638 347 638 422 q 624 205 638 271 q 575 90 610 139 q 483 14 540 42 q 340 -14 426 -14 q 220 11 275 -14 q 126 83 165 36 q 64 196 86 129 q 42 347 42 263 m 125 347 q 185 138 125 207 q 368 69 246 69 q 550 138 490 69 q 610 347 610 207 q 549 556 610 486 q 368 625 489 625 q 185 556 246 625 q 125 347 125 488 z "},"j":{"ha":482,"x_min":43,"x_max":461,"o":"m 440 693 l 440 -50 q 394 -213 440 -162 q 246 -264 347 -264 l 43 -264 l 43 -181 l 288 -181 q 324 -178 311 -181 q 345 -169 338 -176 q 355 -147 353 -161 q 357 -107 357 -132 l 357 693 l 440 693 m 43 610 l 43 693 l 396 693 l 396 610 l 43 610 m 336 768 l 461 768 l 461 903 l 336 903 l 336 768 z "},"t":{"ha":738,"x_min":42,"x_max":696,"o":"m 267 903 l 267 214 q 313 51 267 101 q 461 0 360 0 l 696 0 l 696 83 l 419 83 q 383 85 397 83 q 362 95 369 88 q 352 117 354 103 q 350 157 350 132 l 350 903 l 267 903 m 696 694 l 42 694 l 42 611 l 696 611 l 696 694 z "},"v":{"ha":792,"x_min":42,"x_max":750,"o":"m 347 0 l 431 0 l 125 694 l 42 694 l 347 0 m 361 0 l 444 0 l 750 694 l 667 694 l 361 0 z "},"y":{"ha":778,"x_min":42,"x_max":736,"o":"m 347 0 l 431 0 l 125 694 l 42 694 l 347 0 m 347 0 l 431 0 l 736 694 l 653 694 l 347 0 m 374 60 l 301 -107 q 269 -166 282 -151 q 231 -181 257 -181 l 60 -181 l 60 -264 l 214 -264 q 293 -249 265 -264 q 340 -208 321 -235 q 372 -141 358 -181 q 408 -50 386 -101 l 457 60 l 374 60 z "},"w":{"ha":1222,"x_min":69,"x_max":1181,"o":"m 806 0 l 893 0 l 671 694 l 583 694 l 806 0 m 814 0 l 903 0 l 1181 694 l 1090 694 l 814 0 m 347 0 l 436 0 l 160 694 l 69 694 l 347 0 m 357 0 l 444 0 l 667 694 l 579 694 l 357 0 z "},"x":{"ha":735,"x_min":42,"x_max":750,"o":"m 750 694 l 640 694 l 396 411 l 151 694 l 42 694 l 340 347 l 42 0 l 151 0 l 396 283 l 640 0 l 750 0 l 451 347 l 750 694 z "},"H":{"ha":792,"x_min":42,"x_max":750,"o":"m 42 0 l 125 0 l 125 944 l 42 944 l 42 0 m 667 0 l 750 0 l 750 944 l 667 944 l 667 0 m 106 447 l 686 447 l 686 531 l 106 531 l 106 447 z "},"O":{"ha":793,"x_min":43,"x_max":751,"o":"m 43 535 l 43 410 q 66 235 43 313 q 133 101 89 157 q 244 16 178 46 q 397 -14 311 -14 q 549 16 483 -14 q 660 101 615 46 q 728 235 706 157 q 751 410 751 314 l 751 535 q 728 710 751 632 q 660 844 706 789 q 549 928 615 899 q 397 958 483 958 q 244 928 311 958 q 133 844 178 899 q 66 710 89 789 q 43 535 43 632 m 125 535 q 140 672 125 610 q 189 780 156 735 q 274 850 222 825 q 397 875 325 875 q 521 850 469 875 q 605 780 572 825 q 653 672 638 735 q 668 535 668 610 l 668 410 q 653 272 668 335 q 605 165 638 210 q 521 94 572 119 q 397 69 469 69 q 274 94 325 69 q 189 165 222 119 q 140 272 156 210 q 125 410 125 335 l 125 535 z "},"A":{"ha":836,"x_min":42,"x_max":750,"o":"m 190 260 l 600 260 l 600 343 l 190 343 l 190 260 m 42 0 l 129 0 l 396 813 l 439 944 l 396 944 l 351 944 l 42 0 m 440 944 l 396 944 l 353 944 l 396 813 l 663 0 l 750 0 l 440 944 z "},"I":{"ha":792,"x_min":42,"x_max":750,"o":"m 42 0 l 750 0 l 750 83 l 42 83 l 42 0 m 42 861 l 750 861 l 750 944 l 42 944 l 42 861 m 354 46 l 438 46 l 438 903 l 354 903 l 354 46 z "},"E":{"ha":792,"x_min":42,"x_max":686,"o":"m 42 0 l 125 0 l 125 944 l 42 944 l 42 0 m 106 861 l 686 861 l 686 944 l 106 944 l 106 861 m 106 0 l 686 0 l 686 83 l 106 83 l 106 0 m 106 431 l 631 431 l 631 514 l 106 514 l 106 431 z "},"P":{"ha":840,"x_min":42,"x_max":750,"o":"m 42 0 l 125 0 l 125 944 l 42 944 l 42 0 m 106 375 l 458 375 q 574 397 521 375 q 666 456 626 418 q 728 544 706 493 q 750 656 750 596 q 727 769 750 717 q 665 860 704 821 q 572 922 625 900 q 458 944 519 944 l 106 944 l 106 861 l 438 861 q 606 806 544 861 q 667 656 667 751 q 606 508 667 557 q 438 458 544 458 l 106 458 l 106 375 z "},"D":{"ha":1014,"x_min":42,"x_max":750,"o":"m 42 0 l 125 0 l 125 944 l 42 944 l 42 0 m 106 0 l 353 0 q 506 27 433 0 q 632 111 578 54 q 718 257 686 168 q 750 469 750 346 q 718 683 750 593 q 632 831 686 772 q 506 917 578 889 q 353 944 433 944 l 106 944 l 106 861 l 332 861 q 583 762 500 861 q 667 469 667 663 q 583 180 667 276 q 332 83 500 83 l 106 83 l 106 0 z "},"C":{"ha":878,"x_min":43,"x_max":750,"o":"m 750 354 q 717 201 743 269 q 647 85 692 133 q 540 12 603 38 q 397 -14 478 -14 q 244 16 311 -14 q 133 101 178 46 q 66 235 89 157 q 43 410 43 313 l 43 535 q 66 710 43 632 q 133 844 89 789 q 244 928 178 899 q 397 958 311 958 q 647 859 558 958 q 750 590 736 760 l 667 590 q 643 706 661 654 q 592 796 625 758 q 511 854 560 833 q 397 875 463 875 q 274 850 325 875 q 189 780 222 825 q 140 672 156 735 q 125 535 125 610 l 125 410 q 140 272 125 335 q 189 165 156 210 q 274 94 222 119 q 397 69 325 69 q 511 90 463 69 q 592 149 560 111 q 643 238 625 186 q 667 354 661 290 l 750 354 z "},"B":{"ha":792,"x_min":42,"x_max":750,"o":"m 42 0 l 125 0 l 125 944 l 42 944 l 42 0 m 88 861 l 385 861 q 476 852 435 861 q 548 824 518 843 q 594 772 578 804 q 611 693 611 739 q 594 615 611 647 q 548 563 578 583 q 476 535 518 543 q 385 526 435 526 l 88 526 l 88 443 l 399 443 q 518 459 464 443 q 611 506 572 475 q 672 584 650 538 q 694 693 694 631 q 672 802 694 756 q 611 881 650 849 q 518 928 572 913 q 399 944 464 944 l 88 944 l 88 861 m 88 0 l 454 0 q 574 18 519 0 q 667 70 628 36 q 728 153 706 104 q 750 264 750 201 q 728 375 750 326 q 667 457 706 424 q 574 508 628 490 q 454 526 519 526 l 88 526 l 88 443 l 440 443 q 603 400 540 443 q 667 264 667 357 q 603 127 667 171 q 440 83 540 83 l 88 83 l 88 0 z "},"L":{"ha":728,"x_min":42,"x_max":644,"o":"m 42 0 l 125 0 l 125 944 l 42 944 l 42 0 m 106 0 l 644 0 l 644 83 l 106 83 l 106 0 z "},"F":{"ha":721,"x_min":42,"x_max":686,"o":"m 42 0 l 125 0 l 125 944 l 42 944 l 42 0 m 106 861 l 686 861 l 686 944 l 106 944 l 106 861 m 106 431 l 631 431 l 631 514 l 106 514 l 106 431 z "},"K":{"ha":792,"x_min":42,"x_max":750,"o":"m 42 946 l 125 946 l 125 1 l 42 1 l 42 946 m 750 946 l 88 329 l 88 443 l 628 946 l 750 946 m 750 0 l 638 0 l 196 490 l 253 551 l 750 0 z "},"R":{"ha":864,"x_min":42,"x_max":764,"o":"m 764 0 l 657 0 l 338 397 l 444 397 l 764 0 m 42 944 l 125 944 l 125 0 l 42 0 l 42 944 m 106 458 l 438 458 q 606 508 544 458 q 667 656 667 557 q 606 806 667 751 q 438 861 544 861 l 106 861 l 106 944 l 458 944 q 572 922 519 944 q 665 860 625 900 q 727 769 704 821 q 750 656 750 717 q 728 544 750 596 q 666 456 706 493 q 574 397 626 418 q 458 375 521 375 l 106 375 l 106 458 z "},"N":{"ha":903,"x_min":42,"x_max":861,"o":"m 42 0 l 125 0 l 125 944 l 42 944 l 42 0 m 778 0 l 861 0 l 861 944 l 778 944 l 778 0 m 861 0 l 861 29 l 125 944 l 42 944 l 42 915 l 778 0 l 861 0 z "},"M":{"ha":944,"x_min":42,"x_max":903,"o":"m 42 0 l 125 0 l 125 944 l 42 944 l 42 0 m 819 0 l 903 0 l 903 944 l 819 944 l 819 0 m 42 944 l 428 0 l 517 0 l 131 944 l 42 944 m 814 944 l 428 0 l 517 0 l 903 944 l 814 944 z "},"T":{"ha":792,"x_min":42,"x_max":750,"o":"m 42 861 l 750 861 l 750 944 l 42 944 l 42 861 m 354 0 l 438 0 l 438 894 l 354 894 l 354 0 z "},"S":{"ha":763,"x_min":42,"x_max":750,"o":"m 729 613 q 706 743 729 682 q 638 849 682 804 q 531 919 594 893 q 388 944 467 944 q 254 929 315 944 q 149 883 193 914 q 81 806 106 853 q 56 696 56 760 q 101 557 56 604 q 214 488 146 510 q 361 457 282 465 q 508 434 440 449 q 622 389 576 419 q 667 290 667 358 q 601 135 667 186 q 401 83 535 83 q 200 154 275 83 q 125 346 125 225 l 42 346 q 66 213 42 276 q 135 103 90 150 q 244 28 179 56 q 388 0 308 0 q 533 17 467 0 q 648 69 600 35 q 723 155 696 103 q 750 276 750 207 q 705 424 750 374 q 592 499 660 475 q 444 530 524 522 q 297 550 365 538 q 184 590 229 563 q 139 682 139 618 q 199 817 139 774 q 385 861 258 861 q 493 844 444 861 q 576 794 542 826 q 628 715 610 761 q 646 613 646 669 l 729 613 z "},"Z":{"ha":794,"x_min":42,"x_max":750,"o":"m 42 861 l 750 861 l 750 944 l 42 944 l 42 861 m 42 0 l 750 0 l 750 83 l 42 83 l 42 0 m 42 0 l 82 0 l 750 861 l 750 944 l 708 944 l 42 83 l 42 0 z "},"G":{"ha":788,"x_min":43,"x_max":750,"o":"m 433 343 l 750 343 l 750 413 l 433 413 l 433 343 m 667 0 l 750 0 l 750 399 l 667 399 l 667 0 m 667 354 q 643 238 661 290 q 592 149 625 186 q 511 90 560 111 q 397 69 463 69 q 274 94 325 69 q 189 165 222 119 q 140 272 156 210 q 125 410 125 335 l 125 535 q 140 672 125 610 q 189 780 156 735 q 274 850 222 825 q 397 875 325 875 q 511 854 463 875 q 592 796 560 833 q 643 706 625 758 q 667 590 661 654 l 750 590 q 647 859 736 760 q 397 958 558 958 q 244 928 311 958 q 133 844 178 899 q 66 710 89 789 q 43 535 43 632 l 43 410 q 66 235 43 313 q 133 101 89 157 q 244 16 178 46 q 397 -14 311 -14 q 534 13 478 -14 q 626 87 590 39 q 678 203 661 135 q 694 354 694 271 l 667 354 z "},"Q":{"ha":793,"x_min":43,"x_max":751,"o":"m 43 535 l 43 410 q 66 235 43 313 q 133 101 89 157 q 244 16 178 46 q 397 -14 311 -14 q 549 16 483 -14 q 660 101 615 46 q 728 235 706 157 q 751 410 751 314 l 751 535 q 728 710 751 632 q 660 844 706 789 q 549 928 615 899 q 397 958 483 958 q 244 928 311 958 q 133 844 178 899 q 66 710 89 789 q 43 535 43 632 m 125 535 q 140 672 125 610 q 189 780 156 735 q 274 850 222 825 q 397 875 325 875 q 521 850 469 875 q 605 780 572 825 q 653 672 638 735 q 668 535 668 610 l 668 410 q 653 272 668 335 q 605 165 638 210 q 521 94 572 119 q 397 69 469 69 q 274 94 325 69 q 189 165 222 119 q 140 272 156 210 q 125 410 125 335 l 125 535 m 356 42 l 356 -50 q 402 -213 356 -162 q 550 -264 449 -264 l 711 -264 l 711 -181 l 508 -181 q 471 -178 485 -181 q 450 -169 457 -176 q 441 -147 443 -161 q 439 -107 439 -132 l 439 42 l 397 42 l 356 42 z "},"J":{"ha":792,"x_min":42,"x_max":750,"o":"m 125 363 q 144 246 125 300 q 197 153 163 192 q 281 92 232 114 q 389 69 329 69 q 499 91 449 69 q 588 151 550 113 q 646 244 625 190 q 667 363 667 299 l 667 944 l 750 944 l 750 363 q 723 213 750 282 q 648 94 696 144 q 534 15 600 43 q 390 -14 468 -14 q 249 15 313 -14 q 139 94 185 43 q 67 213 93 144 q 42 363 42 282 l 125 363 m 221 944 l 701 944 l 701 861 l 221 861 l 221 944 z "},"U":{"ha":792,"x_min":42,"x_max":750,"o":"m 42 944 l 125 944 l 125 363 q 144 246 125 300 q 197 153 163 192 q 281 92 232 114 q 389 69 329 69 q 499 91 449 69 q 588 151 550 113 q 646 244 625 190 q 667 363 667 299 l 667 944 l 750 944 l 750 363 q 723 213 750 282 q 648 94 696 144 q 534 15 600 43 q 390 -14 468 -14 q 249 15 313 -14 q 139 94 185 43 q 67 213 93 144 q 42 363 42 282 l 42 944 z "},"V":{"ha":833,"x_min":42,"x_max":750,"o":"m 42 944 l 126 944 l 422 0 l 338 0 l 42 944 m 665 944 l 750 944 l 454 0 l 369 0 l 665 944 z "},"Y":{"ha":792,"x_min":42,"x_max":750,"o":"m 354 0 l 438 0 l 438 389 l 354 389 l 354 0 m 354 375 l 438 375 l 126 944 l 42 944 l 354 375 m 354 375 l 438 375 l 750 944 l 665 944 l 354 375 z "},"W":{"ha":1079,"x_min":43,"x_max":1036,"o":"m 43 944 l 128 944 l 326 0 l 242 0 l 43 944 m 328 0 l 242 0 l 496 944 l 582 944 l 328 0 m 497 944 l 583 944 l 838 0 l 751 0 l 497 944 m 951 944 l 1036 944 l 838 0 l 753 0 l 951 944 z "},"X":{"ha":814,"x_min":42,"x_max":750,"o":"m 42 944 l 138 944 l 396 529 l 654 944 l 750 944 l 457 472 l 750 0 l 654 0 l 396 414 l 138 0 l 42 0 l 333 472 l 42 944 z "},".":{"ha":268,"x_min":43,"x_max":226,"o":"m 43 0 l 226 0 l 226 183 l 43 183 l 43 0 z "},",":{"ha":267,"x_min":42,"x_max":225,"o":"m 42 0 l 225 0 l 225 183 l 42 183 l 42 0 m 225 0 l 225 26 l 126 26 l 126 0 l 61 -165 l 118 -165 l 225 0 z "},":":{"ha":268,"x_min":43,"x_max":226,"o":"m 43 0 l 226 0 l 226 183 l 43 183 l 43 0 m 43 511 l 226 511 l 226 694 l 43 694 l 43 511 z "},";":{"ha":268,"x_min":43,"x_max":226,"o":"m 43 0 l 226 0 l 226 183 l 43 183 l 43 0 m 226 0 l 226 26 l 135 26 l 135 0 l 63 -165 l 119 -165 l 226 0 m 43 511 l 226 511 l 226 694 l 43 694 l 43 511 z "},"-":{"ha":539,"x_min":42,"x_max":497,"o":"m 42 306 l 497 306 l 497 389 l 42 389 l 42 306 z "},"+":{"ha":542,"x_min":43,"x_max":499,"o":"m 229 575 l 229 119 l 313 119 l 313 575 l 229 575 m 43 389 l 43 306 l 499 306 l 499 389 l 43 389 z "},"*":{"ha":601,"x_min":43,"x_max":558,"o":"m 350 1014 l 253 1014 l 281 760 l 301 760 l 322 760 l 350 1014 m 558 778 l 533 872 l 296 779 l 301 760 l 307 739 l 558 778 m 407 524 l 486 579 l 318 771 l 301 760 l 283 747 l 407 524 m 318 747 l 301 760 l 285 771 l 115 579 l 196 524 l 318 747 m 296 739 l 301 760 l 306 779 l 68 872 l 43 778 l 296 739 z "},"^":{"ha":794,"x_min":42,"x_max":750,"o":"m 42 -67 l 750 -67 l 750 -28 l 42 -28 l 42 -67 z "},"˜":{"ha":604,"x_min":42,"x_max":563,"o":"m 42 872 q 76 983 42 939 q 181 1028 111 1028 q 258 1014 228 1028 q 312 983 288 1000 q 360 951 336 965 q 417 938 383 938 q 463 957 447 938 q 479 1014 479 976 l 563 1014 q 528 903 563 947 q 424 858 493 858 q 347 872 376 858 q 292 903 317 886 q 244 935 268 921 q 188 949 221 949 q 141 929 157 949 q 125 872 125 910 l 42 872 z "},"/":{"ha":526,"x_min":43,"x_max":483,"o":"m 396 1056 l 483 1056 l 131 -139 l 43 -139 l 396 1056 z "},"<":{"ha":794,"x_min":56,"x_max":750,"o":"m 750 765 l 750 679 l 56 465 l 56 553 l 750 765 m 750 179 l 750 265 l 56 479 l 56 392 l 750 179 z "},"=":{"ha":681,"x_min":42,"x_max":639,"o":"m 42 457 l 639 457 l 639 540 l 42 540 l 42 457 m 42 254 l 639 254 l 639 338 l 42 338 l 42 254 z "},">":{"ha":794,"x_min":56,"x_max":750,"o":"m 56 765 l 56 679 l 750 465 l 750 553 l 56 765 m 56 179 l 56 265 l 750 479 l 750 392 l 56 179 z "},"!":{"ha":268,"x_min":43,"x_max":225,"o":"m 43 0 l 225 0 l 225 183 l 43 183 l 43 0 m 94 318 l 174 318 l 201 944 l 67 944 l 94 318 z "},"?":{"ha":764,"x_min":42,"x_max":722,"o":"m 290 0 l 474 0 l 474 183 l 290 183 l 290 0 m 421 282 l 421 421 l 338 421 l 338 282 l 421 282 m 125 582 q 142 699 125 646 q 190 792 158 753 q 269 853 222 831 q 375 875 315 875 q 474 861 426 875 q 558 819 522 847 q 617 749 594 790 q 639 651 639 707 q 620 544 639 588 q 565 473 601 500 q 471 433 528 446 q 338 421 414 421 l 338 351 q 490 364 419 351 q 612 410 560 376 q 693 501 664 443 q 722 651 722 560 q 697 773 722 717 q 627 870 672 829 q 518 935 582 911 q 376 958 454 958 q 237 930 299 958 q 131 851 175 901 q 65 731 88 800 q 42 582 42 663 l 125 582 z "},"'":{"ha":181,"x_min":42,"x_max":139,"o":"m 139 1014 l 42 1014 l 69 760 l 90 760 l 111 760 l 139 1014 z "},"\"":{"ha":360,"x_min":43,"x_max":318,"o":"m 140 1014 l 43 1014 l 71 760 l 90 760 l 113 760 l 140 1014 m 318 1014 l 221 1014 l 249 760 l 268 760 l 290 760 l 318 1014 z "},"#":{"ha":897,"x_min":36,"x_max":786,"o":"m 64 590 l 772 590 l 786 674 l 78 674 l 64 590 m 146 0 l 231 0 l 375 944 l 290 944 l 146 0 m 458 0 l 543 0 l 688 944 l 603 944 l 458 0 m 36 271 l 744 271 l 758 354 l 50 354 l 36 271 z "},"@":{"ha":1015,"x_min":43,"x_max":974,"o":"m 592 -222 l 397 -222 q 244 -192 311 -222 q 133 -107 178 -162 q 66 26 89 -51 q 43 201 43 104 l 43 493 q 66 668 43 590 q 133 801 89 746 q 244 887 178 857 q 397 917 311 917 l 619 917 q 772 887 706 917 q 883 801 838 857 q 951 668 928 746 q 974 493 974 590 l 974 376 q 963 245 974 301 q 926 152 953 189 q 851 97 899 115 q 728 78 804 78 l 697 78 l 697 161 l 728 161 q 816 172 783 161 q 865 207 849 182 q 886 273 882 232 q 890 376 890 314 l 890 493 q 822 747 890 661 q 619 833 753 833 l 397 833 q 195 747 264 833 q 126 493 126 661 l 126 201 q 195 -53 126 33 q 397 -139 264 -139 l 592 -139 l 592 -222 m 703 347 q 692 238 703 289 q 654 149 681 186 q 583 90 628 111 q 474 68 539 68 q 380 88 422 68 q 307 143 338 107 q 259 231 276 179 q 242 347 242 283 q 259 464 242 413 q 307 551 276 515 q 380 607 338 588 q 474 626 422 626 q 584 605 540 626 q 654 546 628 583 q 692 458 681 508 q 703 347 703 407 m 682 347 q 635 509 682 456 q 494 563 589 563 q 353 509 400 563 q 307 347 307 456 q 353 185 307 239 q 494 132 400 132 q 635 185 589 132 q 682 347 682 239 m 746 79 l 682 79 l 682 236 l 682 351 l 682 458 l 682 617 l 746 617 l 746 79 z "},"$":{"ha":792,"x_min":42,"x_max":750,"o":"m 729 613 q 706 743 729 682 q 638 849 682 804 q 531 919 594 893 q 388 944 467 944 q 254 929 315 944 q 149 883 193 914 q 81 806 106 853 q 56 696 56 760 q 101 557 56 604 q 214 488 146 510 q 361 457 282 465 q 508 434 440 449 q 622 389 576 419 q 667 290 667 358 q 601 135 667 186 q 401 83 535 83 q 200 154 275 83 q 125 346 125 225 l 42 346 q 66 213 42 276 q 135 103 90 150 q 244 28 179 56 q 388 0 308 0 q 533 17 467 0 q 648 69 600 35 q 723 155 696 103 q 750 276 750 207 q 705 424 750 374 q 592 499 660 475 q 444 530 524 522 q 297 550 365 538 q 184 590 229 563 q 139 682 139 618 q 199 817 139 774 q 385 861 258 861 q 493 844 444 861 q 576 794 542 826 q 628 715 610 761 q 646 613 646 669 l 729 613 m 351 1042 l 351 903 l 435 903 l 435 1042 l 351 1042 m 351 42 l 351 -97 l 435 -97 l 435 42 l 351 42 z "},"€":{"ha":875,"x_min":42,"x_max":833,"o":"m 42 535 l 514 535 l 514 618 l 42 618 l 42 535 m 42 326 l 514 326 l 514 410 l 42 410 l 42 326 m 750 354 q 726 238 744 290 q 676 149 708 186 q 594 90 643 111 q 481 69 546 69 q 357 94 408 69 q 272 165 306 119 q 224 272 239 210 q 208 410 208 335 l 208 535 q 224 672 208 610 q 272 780 239 735 q 357 850 306 825 q 481 875 408 875 q 594 854 546 875 q 676 796 643 833 q 726 706 708 758 q 750 590 744 654 l 833 590 q 731 859 819 760 q 481 958 642 958 q 328 928 394 958 q 217 844 261 899 q 149 710 172 789 q 126 535 126 632 l 126 410 q 149 235 126 313 q 217 101 172 157 q 328 16 261 46 q 481 -14 394 -14 q 624 12 561 -14 q 731 85 686 38 q 801 201 775 133 q 833 354 826 269 l 750 354 z "},"%":{"ha":1357,"x_min":42,"x_max":1314,"o":"m 801 1056 l 889 1056 l 536 -139 l 449 -139 l 801 1056 m 797 244 q 816 351 797 303 q 869 433 835 399 q 950 485 903 467 q 1056 503 997 503 q 1162 485 1114 503 q 1243 433 1210 467 q 1295 351 1276 399 q 1314 244 1314 303 q 1295 139 1314 186 q 1243 58 1276 92 q 1162 5 1210 24 q 1056 -14 1114 -14 q 950 5 997 -14 q 869 58 903 24 q 816 139 835 92 q 797 244 797 186 m 881 244 q 927 115 881 161 q 1057 69 974 69 q 1185 115 1139 69 q 1232 244 1232 161 q 1185 374 1232 328 q 1057 419 1139 419 q 927 374 974 419 q 881 244 881 328 m 42 700 q 60 806 42 758 q 113 887 79 853 q 195 940 147 921 q 300 958 243 958 q 406 940 358 958 q 488 887 454 921 q 541 806 522 853 q 560 700 560 758 q 541 594 560 642 q 488 512 522 546 q 406 460 454 478 q 300 442 358 442 q 195 460 243 442 q 113 512 147 478 q 60 594 79 546 q 42 700 42 642 m 125 700 q 172 571 125 617 q 301 525 218 525 q 431 571 385 525 q 476 700 476 617 q 431 828 476 782 q 301 875 385 875 q 172 828 218 875 q 125 700 125 782 z "},"&":{"ha":779,"x_min":43,"x_max":738,"o":"m 632 0 l 738 0 l 304 499 q 257 553 279 526 q 217 607 235 579 q 190 665 200 635 q 179 732 179 696 q 211 833 179 792 q 319 875 243 875 q 422 840 393 875 q 451 746 451 804 q 421 653 451 690 q 345 589 390 617 q 247 535 300 561 q 149 472 194 508 q 73 382 103 435 q 43 249 43 329 q 62 149 43 197 q 115 65 81 101 q 195 8 149 29 q 299 -14 242 -14 q 440 20 386 -14 q 542 131 493 54 l 732 438 l 660 478 l 479 188 q 447 138 463 160 q 412 101 431 117 q 368 78 393 86 q 308 69 343 69 q 233 84 267 69 q 176 122 200 99 q 140 178 153 146 q 126 247 126 211 q 156 354 126 313 q 232 426 186 396 q 331 483 278 457 q 428 544 383 510 q 503 625 474 578 q 533 746 533 672 q 519 834 533 794 q 478 901 506 874 q 411 943 451 928 q 319 958 371 958 q 222 940 264 958 q 152 891 181 922 q 110 819 124 860 q 96 732 96 778 q 108 649 96 688 q 138 579 119 611 q 180 519 157 547 q 224 467 203 492 l 632 0 z "},"(":{"ha":515,"x_min":42,"x_max":472,"o":"m 472 -181 l 472 -97 q 329 -58 393 -97 q 220 53 265 -18 q 150 222 175 124 q 125 438 125 321 q 150 653 125 554 q 220 822 175 751 q 329 933 265 893 q 472 972 393 972 l 472 1056 q 310 1017 388 1056 q 172 900 232 978 q 77 706 113 822 q 42 438 42 590 q 77 169 42 285 q 172 -25 113 53 q 310 -142 232 -103 q 472 -181 388 -181 z "},")":{"ha":515,"x_min":42,"x_max":472,"o":"m 42 -181 l 42 -97 q 185 -58 121 -97 q 294 53 249 -18 q 365 222 340 124 q 389 438 389 321 q 365 653 389 554 q 294 822 340 751 q 185 933 249 893 q 42 972 121 972 l 42 1056 q 204 1017 126 1056 q 342 900 282 978 q 437 706 401 822 q 472 438 472 590 q 437 169 472 285 q 342 -25 401 53 q 204 -142 282 -103 q 42 -181 126 -181 z "},"{":{"ha":558,"x_min":43,"x_max":517,"o":"m 43 396 l 43 479 l 54 479 q 128 495 110 479 q 146 560 146 511 l 146 842 q 192 1005 146 954 q 340 1056 239 1056 l 517 1056 l 517 972 l 300 972 q 263 970 276 972 q 241 960 249 968 q 231 938 233 953 q 229 899 229 924 l 229 551 q 187 437 229 478 q 67 396 144 396 l 43 396 m 67 479 q 187 438 144 479 q 229 322 229 396 l 229 -25 q 231 -65 229 -50 q 241 -87 233 -79 q 263 -97 249 -94 q 300 -99 276 -99 l 517 -99 l 517 -182 l 340 -182 q 192 -131 239 -182 q 146 32 146 -81 l 146 314 q 128 378 146 363 q 54 394 110 394 l 43 394 l 43 479 l 67 479 z "},"|":{"ha":167,"x_min":42,"x_max":125,"o":"m 42 -292 l 125 -292 l 125 1042 l 42 1042 l 42 -292 z "},"}":{"ha":558,"x_min":43,"x_max":517,"o":"m 517 396 l 517 479 l 504 479 q 431 495 449 479 q 413 560 413 511 l 413 842 q 366 1005 413 954 q 218 1056 319 1056 l 43 1056 l 43 972 l 260 972 q 297 970 283 972 q 317 960 310 968 q 327 938 325 953 q 329 899 329 924 l 329 551 q 372 437 329 478 q 492 396 415 396 l 517 396 m 492 479 q 372 438 415 479 q 329 322 329 396 l 329 -25 q 327 -65 329 -50 q 317 -87 325 -79 q 297 -97 310 -94 q 260 -99 283 -99 l 43 -99 l 43 -182 l 218 -182 q 366 -131 319 -182 q 413 32 413 -81 l 413 314 q 431 378 413 363 q 504 394 449 394 l 517 394 l 517 479 l 492 479 z "},"[":{"ha":486,"x_min":42,"x_max":444,"o":"m 42 -181 l 125 -181 l 125 1056 l 42 1056 l 42 -181 m 42 -181 l 444 -181 l 444 -97 l 42 -97 l 42 -181 m 42 972 l 444 972 l 444 1056 l 42 1056 l 42 972 z "},"\\":{"ha":517,"x_min":43,"x_max":483,"o":"m 131 1056 l 43 1056 l 396 -139 l 483 -139 l 131 1056 z "},"]":{"ha":486,"x_min":42,"x_max":444,"o":"m 444 -181 l 361 -181 l 361 1056 l 444 1056 l 444 -181 m 444 -181 l 42 -181 l 42 -97 l 444 -97 l 444 -181 m 444 972 l 42 972 l 42 1056 l 444 1056 l 444 972 z "},"‘":{"ha":267,"x_min":42,"x_max":225,"o":"m 225 779 l 42 779 l 42 597 l 225 597 l 225 779 m 42 779 l 42 753 l 140 753 l 140 779 l 206 944 l 149 944 l 42 779 z "},"’":{"ha":267,"x_min":42,"x_max":225,"o":"m 42 761 l 225 761 l 225 944 l 42 944 l 42 761 m 225 761 l 225 788 l 126 788 l 126 761 l 61 597 l 118 597 l 225 761 z "},"“":{"ha":551,"x_min":42,"x_max":499,"o":"m 225 779 l 42 779 l 42 597 l 225 597 l 225 779 m 42 779 l 42 753 l 140 753 l 140 779 l 206 944 l 149 944 l 42 779 m 315 597 l 499 597 l 499 779 l 315 779 l 315 597 m 315 779 l 315 753 l 414 753 l 414 779 l 479 944 l 422 944 l 315 779 z "},"”":{"ha":540,"x_min":42,"x_max":499,"o":"m 315 761 l 499 761 l 499 944 l 315 944 l 315 761 m 499 761 l 499 788 l 400 788 l 400 761 l 335 597 l 392 597 l 499 761 m 225 944 l 42 944 l 42 761 l 225 761 l 225 944 m 225 763 l 225 788 l 126 788 l 126 763 l 61 597 l 118 597 l 225 763 z "},"‚":{"ha":267,"x_min":42,"x_max":225,"o":"m 42 0 l 225 0 l 225 183 l 42 183 l 42 0 m 225 0 l 225 26 l 126 26 l 126 0 l 61 -165 l 118 -165 l 225 0 z "},"„":{"ha":540,"x_min":42,"x_max":499,"o":"m 315 0 l 499 0 l 499 183 l 315 183 l 315 0 m 499 0 l 499 26 l 400 26 l 400 0 l 335 -165 l 392 -165 l 499 0 m 225 183 l 42 183 l 42 0 l 225 0 l 225 183 m 225 1 l 225 26 l 126 26 l 126 1 l 61 -164 l 118 -165 l 225 1 z "},"•":{"ha":522,"x_min":0,"x_max":0,"o":""},"_":{"ha":792,"x_min":42,"x_max":750,"o":"m 42 -160 l 750 -160 l 750 -76 l 42 -76 l 42 -160 z "},"–":{"ha":792,"x_min":42,"x_max":750,"o":"m 42 306 l 750 306 l 750 389 l 42 389 l 42 306 z "},"—":{"ha":1028,"x_min":42,"x_max":986,"o":"m 42 306 l 986 306 l 986 389 l 42 389 l 42 306 z "},"¯":{"ha":542,"x_min":42,"x_max":500,"o":"m 42 861 l 500 861 l 500 944 l 42 944 l 42 861 z "},"¬":{"ha":794,"x_min":42,"x_max":750,"o":"m 42 -67 l 750 -67 l 750 -28 l 42 -28 l 42 -67 z "},"™":{"ha":1074,"x_min":0,"x_max":0,"o":""},"®":{"ha":1156,"x_min":0,"x_max":0,"o":""},"©":{"ha":1156,"x_min":0,"x_max":0,"o":""},"¤":{"ha":794,"x_min":0,"x_max":0,"o":""},"¢":{"ha":794,"x_min":42,"x_max":685,"o":"m 685 256 q 579 57 661 128 q 367 -14 497 -14 q 128 82 215 -14 q 42 347 42 178 q 128 612 42 515 q 367 708 215 708 q 576 640 494 708 q 683 450 658 572 l 599 450 q 522 582 579 539 q 367 625 464 625 q 185 556 246 625 q 125 347 125 486 q 185 138 125 207 q 367 69 246 69 q 526 115 468 69 q 601 256 583 161 l 685 256 m 324 42 l 407 42 l 407 -97 l 324 -97 l 324 42 m 324 792 l 407 792 l 407 653 l 324 653 l 324 792 z "},"£":{"ha":794,"x_min":0,"x_max":0,"o":""},"¥":{"ha":794,"x_min":42,"x_max":750,"o":"m 146 367 l 646 367 l 646 450 l 146 450 l 146 367 m 146 172 l 646 172 l 646 256 l 146 256 l 146 172 m 354 0 l 438 0 l 438 389 l 354 389 l 354 0 m 354 375 l 438 375 l 126 944 l 42 944 l 354 375 m 354 375 l 438 375 l 750 944 l 665 944 l 354 375 z "},"ƒ":{"ha":575,"x_min":0,"x_max":0,"o":""},"−":{"ha":539,"x_min":42,"x_max":497,"o":"m 42 306 l 497 306 l 497 389 l 42 389 l 42 306 z "},"±":{"ha":542,"x_min":42,"x_max":499,"o":"m 42 42 l 497 42 l 497 125 l 42 125 l 42 42 m 229 653 l 229 197 l 313 197 l 313 653 l 229 653 m 43 467 l 43 383 l 499 383 l 499 467 l 43 467 z "},"×":{"ha":467,"x_min":43,"x_max":424,"o":"m 365 538 l 43 215 l 101 157 l 424 479 l 365 538 m 101 538 l 43 479 l 365 157 l 424 215 l 101 538 z "},"÷":{"ha":794,"x_min":0,"x_max":0,"o":""},"¦":{"ha":765,"x_min":0,"x_max":0,"o":""},"…":{"ha":1099,"x_min":0,"x_max":0,"o":""},"·":{"ha":372,"x_min":0,"x_max":0,"o":""},"¡":{"ha":268,"x_min":43,"x_max":225,"o":"m 43 681 l 225 681 l 225 497 l 43 497 l 43 681 m 94 363 l 174 363 l 201 -264 l 67 -264 l 94 363 z "},"¿":{"ha":764,"x_min":42,"x_max":722,"o":"m 474 681 l 290 681 l 290 497 l 474 497 l 474 681 m 343 399 l 343 260 l 426 260 l 426 399 l 343 399 m 639 99 q 622 -19 639 35 q 574 -111 606 -72 q 495 -172 542 -150 q 389 -194 449 -194 q 290 -181 338 -194 q 206 -138 242 -167 q 147 -68 169 -110 q 125 29 125 -26 q 144 137 125 93 q 199 208 163 181 q 293 247 236 235 q 426 260 350 260 l 426 329 q 274 317 344 329 q 152 271 204 304 q 71 179 100 238 q 42 29 42 121 q 67 -92 42 -36 q 137 -190 92 -149 q 246 -254 182 -231 q 388 -278 310 -278 q 527 -249 465 -278 q 633 -170 589 -221 q 699 -51 676 -119 q 722 99 722 18 l 639 99 z "},"°":{"ha":594,"x_min":0,"x_max":0,"o":""},"ª":{"ha":496,"x_min":0,"x_max":0,"o":""},"º":{"ha":522,"x_min":0,"x_max":0,"o":""},"¹":{"ha":486,"x_min":0,"x_max":0,"o":""},"²":{"ha":486,"x_min":0,"x_max":0,"o":""},"³":{"ha":486,"x_min":0,"x_max":0,"o":""},"⁄":{"ha":181,"x_min":0,"x_max":0,"o":""},"¼":{"ha":1035,"x_min":0,"x_max":0,"o":""},"½":{"ha":1071,"x_min":0,"x_max":0,"o":""},"¾":{"ha":1085,"x_min":0,"x_max":0,"o":""},"‰":{"ha":1943,"x_min":42,"x_max":1900,"o":"m 801 1056 l 889 1056 l 536 -139 l 449 -139 l 801 1056 m 797 244 q 816 351 797 303 q 869 433 835 399 q 950 485 903 467 q 1056 503 997 503 q 1162 485 1114 503 q 1243 433 1210 467 q 1295 351 1276 399 q 1314 244 1314 303 q 1295 139 1314 186 q 1243 58 1276 92 q 1162 5 1210 24 q 1056 -14 1114 -14 q 950 5 997 -14 q 869 58 903 24 q 816 139 835 92 q 797 244 797 186 m 881 244 q 927 115 881 161 q 1057 69 974 69 q 1185 115 1139 69 q 1232 244 1232 161 q 1185 374 1232 328 q 1057 419 1139 419 q 927 374 974 419 q 881 244 881 328 m 42 700 q 60 806 42 758 q 113 887 79 853 q 195 940 147 921 q 300 958 243 958 q 406 940 358 958 q 488 887 454 921 q 541 806 522 853 q 560 700 560 758 q 541 594 560 642 q 488 512 522 546 q 406 460 454 478 q 300 442 358 442 q 195 460 243 442 q 113 512 147 478 q 60 594 79 546 q 42 700 42 642 m 125 700 q 172 571 125 617 q 301 525 218 525 q 431 571 385 525 q 476 700 476 617 q 431 828 476 782 q 301 875 385 875 q 172 828 218 875 q 125 700 125 782 m 1383 244 q 1402 351 1383 303 q 1455 432 1421 399 q 1537 484 1489 465 q 1642 503 1585 503 q 1748 484 1700 503 q 1830 432 1796 465 q 1882 351 1864 399 q 1900 244 1900 303 q 1882 138 1900 186 q 1830 57 1864 90 q 1748 5 1796 24 q 1642 -14 1700 -14 q 1537 5 1585 -14 q 1455 57 1489 24 q 1402 138 1421 90 q 1383 244 1383 186 m 1467 244 q 1513 115 1467 161 q 1643 69 1560 69 q 1772 115 1725 69 q 1818 244 1818 161 q 1772 373 1818 326 q 1643 419 1725 419 q 1513 373 1560 419 q 1467 244 1467 326 z "},"μ":{"ha":865,"x_min":0,"x_max":0,"o":""},"¶":{"ha":910,"x_min":0,"x_max":0,"o":""},"§":{"ha":713,"x_min":0,"x_max":0,"o":""},"†":{"ha":711,"x_min":0,"x_max":0,"o":""},"‡":{"ha":711,"x_min":0,"x_max":0,"o":""},"~":{"ha":794,"x_min":0,"x_max":0,"o":""},"‹":{"ha":322,"x_min":42,"x_max":281,"o":"m 42 347 l 114 306 l 281 594 l 208 636 l 42 347 m 114 389 l 42 347 l 208 58 l 281 100 l 114 389 z "},"›":{"ha":322,"x_min":42,"x_max":281,"o":"m 281 347 l 208 306 l 42 594 l 114 636 l 281 347 m 208 389 l 281 347 l 114 58 l 42 100 l 208 389 z "},"«":{"ha":519,"x_min":42,"x_max":478,"o":"m 42 347 l 114 306 l 281 594 l 208 636 l 42 347 m 114 389 l 42 347 l 208 58 l 281 100 l 114 389 m 250 347 l 321 306 l 478 576 l 406 618 l 250 347 m 406 76 l 478 118 l 321 389 l 250 347 l 406 76 z "},"»":{"ha":519,"x_min":42,"x_max":478,"o":"m 478 347 l 406 306 l 239 594 l 311 636 l 478 347 m 406 389 l 478 347 l 311 58 l 239 100 l 406 389 m 269 347 l 199 306 l 42 576 l 114 618 l 269 347 m 114 76 l 42 118 l 199 389 l 269 347 l 114 76 z "},"˘":{"ha":543,"x_min":43,"x_max":500,"o":"m 43 1014 l 126 1014 q 168 935 126 961 q 271 910 210 910 q 375 936 332 910 q 418 1014 418 963 l 500 1014 q 440 885 500 938 q 271 833 379 833 q 103 885 164 833 q 43 1014 43 938 z "},"˙":{"ha":210,"x_min":42,"x_max":167,"o":"m 42 768 l 167 768 l 167 903 l 42 903 l 42 768 z "},"˚":{"ha":360,"x_min":43,"x_max":318,"o":"m 43 876 q 80 976 43 939 q 181 1014 117 1014 q 280 976 242 1014 q 318 876 318 939 q 280 776 318 814 q 181 739 242 739 q 80 776 117 739 q 43 876 43 814 m 100 876 q 122 819 100 840 q 181 797 144 797 q 238 819 215 797 q 260 876 260 840 q 238 934 260 913 q 181 956 215 956 q 122 934 144 956 q 100 876 100 913 z "},"˝":{"ha":522,"x_min":42,"x_max":481,"o":"m 140 1014 l 257 1014 l 257 990 l 121 811 l 42 811 l 140 1014 m 481 1014 l 481 990 l 344 811 l 265 811 l 365 1014 l 481 1014 z "},"˛":{"ha":347,"x_min":43,"x_max":306,"o":"m 250 4 q 281 3 261 4 q 306 1 300 1 q 182 -60 219 -32 q 144 -117 144 -89 q 148 -139 144 -129 q 159 -155 151 -149 q 178 -165 167 -161 q 206 -167 190 -168 l 306 -167 l 306 -264 q 284 -264 306 -264 q 236 -264 263 -264 q 188 -264 210 -264 q 167 -264 167 -264 q 74 -239 104 -264 q 43 -162 43 -214 q 60 -116 43 -139 q 104 -71 76 -93 q 169 -29 132 -49 q 250 4 207 -10 z "},"ˇ":{"ha":438,"x_min":42,"x_max":396,"o":"m 140 811 l 257 811 l 257 835 l 121 1014 l 42 1014 l 140 811 m 296 811 l 396 1014 l 317 1014 l 181 835 l 181 811 l 296 811 z "},"ı":{"ha":358,"x_min":0,"x_max":0,"o":""},"`":{"ha":299,"x_min":42,"x_max":257,"o":"m 158 1014 l 42 1014 l 42 990 l 178 811 l 257 811 l 158 1014 z "},"ˆ":{"ha":438,"x_min":42,"x_max":396,"o":"m 140 1014 l 257 1014 l 257 990 l 121 811 l 42 811 l 140 1014 m 296 1014 l 396 811 l 317 811 l 181 990 l 181 1014 l 296 1014 z "},"¨":{"ha":461,"x_min":42,"x_max":418,"o":"m 42 768 l 167 768 l 167 903 l 42 903 l 42 768 m 293 768 l 418 768 l 418 903 l 293 903 l 293 768 z "},"´":{"ha":299,"x_min":42,"x_max":257,"o":"m 142 1014 l 257 1014 l 257 990 l 121 811 l 42 811 l 142 1014 z "},"¸":{"ha":314,"x_min":42,"x_max":272,"o":"m 115 1 l 206 1 l 129 -78 q 180 -67 154 -65 q 226 -81 206 -69 q 259 -114 246 -93 q 272 -161 272 -135 q 242 -240 272 -215 q 144 -264 211 -264 l 42 -264 l 42 -181 l 140 -181 q 182 -169 169 -179 q 194 -136 194 -158 q 183 -110 194 -119 q 154 -101 172 -101 q 133 -107 142 -101 q 118 -119 124 -112 q 107 -137 111 -128 l 53 -114 l 115 1 z "},"Á":{"ha":836,"x_min":42,"x_max":750,"o":"m 190 260 l 600 260 l 600 343 l 190 343 l 190 260 m 42 0 l 129 0 l 396 813 l 439 944 l 396 944 l 351 944 l 42 0 m 440 944 l 396 944 l 353 944 l 396 813 l 663 0 l 750 0 l 440 944 m 442 1217 l 557 1217 l 557 1193 l 421 1014 l 342 1014 l 442 1217 z "},"À":{"ha":836,"x_min":42,"x_max":750,"o":"m 190 260 l 600 260 l 600 343 l 190 343 l 190 260 m 42 0 l 129 0 l 396 813 l 439 944 l 396 944 l 351 944 l 42 0 m 440 944 l 396 944 l 353 944 l 396 813 l 663 0 l 750 0 l 440 944 m 376 1217 l 260 1217 l 260 1193 l 396 1014 l 475 1014 l 376 1217 z "},"Â":{"ha":836,"x_min":42,"x_max":750,"o":"m 190 260 l 600 260 l 600 343 l 190 343 l 190 260 m 42 0 l 129 0 l 396 813 l 439 944 l 396 944 l 351 944 l 42 0 m 440 944 l 396 944 l 353 944 l 396 813 l 663 0 l 750 0 l 440 944 m 317 1217 l 433 1217 l 433 1193 l 297 1014 l 218 1014 l 317 1217 m 472 1217 l 572 1014 l 493 1014 l 357 1193 l 357 1217 l 472 1217 z "},"Ã":{"ha":836,"x_min":42,"x_max":750,"o":"m 190 260 l 600 260 l 600 343 l 190 343 l 190 260 m 42 0 l 129 0 l 396 813 l 439 944 l 396 944 l 351 944 l 42 0 m 440 944 l 396 944 l 353 944 l 396 813 l 663 0 l 750 0 l 440 944 m 144 1014 q 179 1125 144 1081 q 283 1169 214 1169 q 360 1156 331 1169 q 415 1124 390 1142 q 463 1093 439 1107 q 519 1079 486 1079 q 566 1099 550 1079 q 582 1156 582 1118 l 665 1156 q 631 1044 665 1089 q 526 1000 596 1000 q 449 1014 479 1000 q 395 1045 419 1028 q 347 1076 371 1063 q 290 1090 324 1090 q 244 1071 260 1090 q 228 1014 228 1051 l 144 1014 z "},"Ä":{"ha":836,"x_min":42,"x_max":750,"o":"m 190 260 l 600 260 l 600 343 l 190 343 l 190 260 m 42 0 l 129 0 l 396 813 l 439 944 l 396 944 l 351 944 l 42 0 m 440 944 l 396 944 l 353 944 l 396 813 l 663 0 l 750 0 l 440 944 m 207 1014 l 332 1014 l 332 1149 l 207 1149 l 207 1014 m 458 1014 l 583 1014 l 583 1149 l 458 1149 l 458 1014 z "},"Å":{"ha":836,"x_min":42,"x_max":750,"o":"m 190 260 l 600 260 l 600 343 l 190 343 l 190 260 m 42 0 l 129 0 l 396 813 l 439 944 l 396 944 l 351 944 l 42 0 m 440 944 l 396 944 l 353 944 l 396 813 l 663 0 l 750 0 l 440 944 m 258 1138 q 295 1238 258 1200 q 396 1275 332 1275 q 495 1238 457 1275 q 533 1138 533 1200 q 495 1038 533 1075 q 396 1000 457 1000 q 295 1038 332 1000 q 258 1138 258 1075 m 315 1138 q 338 1080 315 1101 q 396 1058 360 1058 q 453 1080 431 1058 q 475 1138 475 1101 q 453 1195 475 1174 q 396 1217 431 1217 q 338 1195 360 1217 q 315 1138 315 1174 z "},"Æ":{"ha":1101,"x_min":43,"x_max":1060,"o":"m 221 260 l 575 260 l 575 343 l 221 343 l 221 260 m 43 0 l 135 0 l 569 944 l 478 944 l 43 0 m 526 0 l 610 0 l 610 944 l 526 944 l 526 0 m 590 861 l 1060 861 l 1060 944 l 590 944 l 590 861 m 590 0 l 1060 0 l 1060 83 l 590 83 l 590 0 m 590 431 l 1004 431 l 1004 514 l 590 514 l 590 431 z "},"Ç":{"ha":878,"x_min":42,"x_max":750,"o":"m 750 354 q 717 201 743 269 q 647 85 692 133 q 540 12 603 38 q 397 -14 478 -14 q 244 16 311 -14 q 133 101 178 46 q 66 235 89 157 q 43 410 43 313 l 43 535 q 66 710 43 632 q 133 844 89 789 q 244 928 178 899 q 397 958 311 958 q 647 859 558 958 q 750 590 736 760 l 667 590 q 643 706 661 654 q 592 796 625 758 q 511 854 560 833 q 397 875 463 875 q 274 850 325 875 q 189 780 222 825 q 140 672 156 735 q 125 535 125 610 l 125 410 q 140 272 125 335 q 189 165 156 210 q 274 94 222 119 q 397 69 325 69 q 511 90 463 69 q 592 149 560 111 q 643 238 625 186 q 667 354 661 290 l 750 354 m 115 1 l 206 1 l 129 -78 q 180 -67 154 -65 q 226 -81 206 -69 q 259 -114 246 -93 q 272 -161 272 -135 q 242 -240 272 -215 q 144 -264 211 -264 l 42 -264 l 42 -181 l 140 -181 q 182 -169 169 -179 q 194 -136 194 -158 q 183 -110 194 -119 q 154 -101 172 -101 q 133 -107 142 -101 q 118 -119 124 -112 q 107 -137 111 -128 l 53 -114 l 115 1 z "},"È":{"ha":792,"x_min":42,"x_max":686,"o":"m 42 0 l 125 0 l 125 944 l 42 944 l 42 0 m 106 861 l 686 861 l 686 944 l 106 944 l 106 861 m 106 0 l 686 0 l 686 83 l 106 83 l 106 0 m 106 431 l 631 431 l 631 514 l 106 514 l 106 431 m 349 1217 l 232 1217 l 232 1193 l 368 1014 l 447 1014 l 349 1217 z "},"É":{"ha":792,"x_min":42,"x_max":686,"o":"m 42 0 l 125 0 l 125 944 l 42 944 l 42 0 m 106 861 l 686 861 l 686 944 l 106 944 l 106 861 m 106 0 l 686 0 l 686 83 l 106 83 l 106 0 m 106 431 l 631 431 l 631 514 l 106 514 l 106 431 m 399 1217 l 514 1217 l 514 1193 l 378 1014 l 299 1014 l 399 1217 z "},"Ê":{"ha":792,"x_min":42,"x_max":686,"o":"m 42 0 l 125 0 l 125 944 l 42 944 l 42 0 m 106 861 l 686 861 l 686 944 l 106 944 l 106 861 m 106 0 l 686 0 l 686 83 l 106 83 l 106 0 m 106 431 l 631 431 l 631 514 l 106 514 l 106 431 m 304 1217 l 421 1217 l 421 1193 l 285 1014 l 206 1014 l 304 1217 m 460 1217 l 560 1014 l 481 1014 l 344 1193 l 344 1217 l 460 1217 z "},"Ë":{"ha":792,"x_min":42,"x_max":686,"o":"m 42 0 l 125 0 l 125 944 l 42 944 l 42 0 m 106 861 l 686 861 l 686 944 l 106 944 l 106 861 m 106 0 l 686 0 l 686 83 l 106 83 l 106 0 m 106 431 l 631 431 l 631 514 l 106 514 l 106 431 m 193 1014 l 318 1014 l 318 1149 l 193 1149 l 193 1014 m 444 1014 l 569 1014 l 569 1149 l 444 1149 l 444 1014 z "},"Ì":{"ha":792,"x_min":42,"x_max":750,"o":"m 42 0 l 750 0 l 750 83 l 42 83 l 42 0 m 42 861 l 750 861 l 750 944 l 42 944 l 42 861 m 354 46 l 438 46 l 438 903 l 354 903 l 354 46 m 374 1217 l 257 1217 l 257 1193 l 393 1014 l 472 1014 l 374 1217 z "},"Í":{"ha":792,"x_min":42,"x_max":750,"o":"m 42 0 l 750 0 l 750 83 l 42 83 l 42 0 m 42 861 l 750 861 l 750 944 l 42 944 l 42 861 m 354 46 l 438 46 l 438 903 l 354 903 l 354 46 m 414 1217 l 529 1217 l 529 1193 l 393 1014 l 314 1014 l 414 1217 z "},"Î":{"ha":792,"x_min":42,"x_max":750,"o":"m 42 0 l 750 0 l 750 83 l 42 83 l 42 0 m 42 861 l 750 861 l 750 944 l 42 944 l 42 861 m 354 46 l 438 46 l 438 903 l 354 903 l 354 46 m 318 1217 l 435 1217 l 435 1193 l 299 1014 l 219 1014 l 318 1217 m 474 1217 l 574 1014 l 494 1014 l 358 1193 l 358 1217 l 474 1217 z "},"Ï":{"ha":792,"x_min":42,"x_max":750,"o":"m 42 0 l 750 0 l 750 83 l 42 83 l 42 0 m 42 861 l 750 861 l 750 944 l 42 944 l 42 861 m 354 46 l 438 46 l 438 903 l 354 903 l 354 46 m 207 1014 l 332 1014 l 332 1149 l 207 1149 l 207 1014 m 458 1014 l 583 1014 l 583 1149 l 458 1149 l 458 1014 z "},"Ñ":{"ha":903,"x_min":42,"x_max":861,"o":"m 42 0 l 125 0 l 125 944 l 42 944 l 42 0 m 778 0 l 861 0 l 861 944 l 778 944 l 778 0 m 861 0 l 861 29 l 125 944 l 42 944 l 42 915 l 778 0 l 861 0 m 204 1014 q 239 1125 204 1081 q 343 1169 274 1169 q 420 1156 390 1169 q 474 1124 450 1142 q 522 1093 499 1107 q 579 1079 546 1079 q 626 1099 610 1079 q 642 1156 642 1118 l 725 1156 q 690 1044 725 1089 q 586 1000 656 1000 q 509 1014 539 1000 q 455 1045 479 1028 q 407 1076 431 1063 q 350 1090 383 1090 q 303 1071 319 1090 q 288 1014 288 1051 l 204 1014 z "},"Ò":{"ha":793,"x_min":43,"x_max":751,"o":"m 43 535 l 43 410 q 66 235 43 313 q 133 101 89 157 q 244 16 178 46 q 397 -14 311 -14 q 549 16 483 -14 q 660 101 615 46 q 728 235 706 157 q 751 410 751 314 l 751 535 q 728 710 751 632 q 660 844 706 789 q 549 928 615 899 q 397 958 483 958 q 244 928 311 958 q 133 844 178 899 q 66 710 89 789 q 43 535 43 632 m 125 535 q 140 672 125 610 q 189 780 156 735 q 274 850 222 825 q 397 875 325 875 q 521 850 469 875 q 605 780 572 825 q 653 672 638 735 q 668 535 668 610 l 668 410 q 653 272 668 335 q 605 165 638 210 q 521 94 572 119 q 397 69 469 69 q 274 94 325 69 q 189 165 222 119 q 140 272 156 210 q 125 410 125 335 l 125 535 m 378 1217 l 261 1217 l 261 1193 l 397 1014 l 476 1014 l 378 1217 z "},"Ó":{"ha":793,"x_min":43,"x_max":751,"o":"m 43 535 l 43 410 q 66 235 43 313 q 133 101 89 157 q 244 16 178 46 q 397 -14 311 -14 q 549 16 483 -14 q 660 101 615 46 q 728 235 706 157 q 751 410 751 314 l 751 535 q 728 710 751 632 q 660 844 706 789 q 549 928 615 899 q 397 958 483 958 q 244 928 311 958 q 133 844 178 899 q 66 710 89 789 q 43 535 43 632 m 125 535 q 140 672 125 610 q 189 780 156 735 q 274 850 222 825 q 397 875 325 875 q 521 850 469 875 q 605 780 572 825 q 653 672 638 735 q 668 535 668 610 l 668 410 q 653 272 668 335 q 605 165 638 210 q 521 94 572 119 q 397 69 469 69 q 274 94 325 69 q 189 165 222 119 q 140 272 156 210 q 125 410 125 335 l 125 535 m 422 1217 l 538 1217 l 538 1193 l 401 1014 l 322 1014 l 422 1217 z "},"Ô":{"ha":793,"x_min":43,"x_max":751,"o":"m 43 535 l 43 410 q 66 235 43 313 q 133 101 89 157 q 244 16 178 46 q 397 -14 311 -14 q 549 16 483 -14 q 660 101 615 46 q 728 235 706 157 q 751 410 751 314 l 751 535 q 728 710 751 632 q 660 844 706 789 q 549 928 615 899 q 397 958 483 958 q 244 928 311 958 q 133 844 178 899 q 66 710 89 789 q 43 535 43 632 m 125 535 q 140 672 125 610 q 189 780 156 735 q 274 850 222 825 q 397 875 325 875 q 521 850 469 875 q 605 780 572 825 q 653 672 638 735 q 668 535 668 610 l 668 410 q 653 272 668 335 q 605 165 638 210 q 521 94 572 119 q 397 69 469 69 q 274 94 325 69 q 189 165 222 119 q 140 272 156 210 q 125 410 125 335 l 125 535 m 318 1217 l 435 1217 l 435 1193 l 299 1014 l 219 1014 l 318 1217 m 474 1217 l 574 1014 l 494 1014 l 358 1193 l 358 1217 l 474 1217 z "},"Õ":{"ha":793,"x_min":43,"x_max":751,"o":"m 43 535 l 43 410 q 66 235 43 313 q 133 101 89 157 q 244 16 178 46 q 397 -14 311 -14 q 549 16 483 -14 q 660 101 615 46 q 728 235 706 157 q 751 410 751 314 l 751 535 q 728 710 751 632 q 660 844 706 789 q 549 928 615 899 q 397 958 483 958 q 244 928 311 958 q 133 844 178 899 q 66 710 89 789 q 43 535 43 632 m 125 535 q 140 672 125 610 q 189 780 156 735 q 274 850 222 825 q 397 875 325 875 q 521 850 469 875 q 605 780 572 825 q 653 672 638 735 q 668 535 668 610 l 668 410 q 653 272 668 335 q 605 165 638 210 q 521 94 572 119 q 397 69 469 69 q 274 94 325 69 q 189 165 222 119 q 140 272 156 210 q 125 410 125 335 l 125 535 m 136 1028 q 171 1139 136 1094 q 275 1183 206 1183 q 352 1169 322 1183 q 406 1138 382 1156 q 454 1107 431 1121 q 511 1093 478 1093 q 558 1113 542 1093 q 574 1169 574 1132 l 657 1169 q 622 1058 657 1103 q 518 1014 588 1014 q 441 1028 471 1014 q 387 1059 411 1042 q 339 1090 363 1076 q 282 1104 315 1104 q 235 1085 251 1104 q 219 1028 219 1065 l 136 1028 z "},"Ö":{"ha":793,"x_min":43,"x_max":751,"o":"m 43 535 l 43 410 q 66 235 43 313 q 133 101 89 157 q 244 16 178 46 q 397 -14 311 -14 q 549 16 483 -14 q 660 101 615 46 q 728 235 706 157 q 751 410 751 314 l 751 535 q 728 710 751 632 q 660 844 706 789 q 549 928 615 899 q 397 958 483 958 q 244 928 311 958 q 133 844 178 899 q 66 710 89 789 q 43 535 43 632 m 125 535 q 140 672 125 610 q 189 780 156 735 q 274 850 222 825 q 397 875 325 875 q 521 850 469 875 q 605 780 572 825 q 653 672 638 735 q 668 535 668 610 l 668 410 q 653 272 668 335 q 605 165 638 210 q 521 94 572 119 q 397 69 469 69 q 274 94 325 69 q 189 165 222 119 q 140 272 156 210 q 125 410 125 335 l 125 535 m 208 1014 l 333 1014 l 333 1149 l 208 1149 l 208 1014 m 460 1014 l 585 1014 l 585 1149 l 460 1149 l 460 1014 z "},"Ù":{"ha":792,"x_min":42,"x_max":750,"o":"m 42 944 l 125 944 l 125 363 q 144 246 125 300 q 197 153 163 192 q 281 92 232 114 q 389 69 329 69 q 499 91 449 69 q 588 151 550 113 q 646 244 625 190 q 667 363 667 299 l 667 944 l 750 944 l 750 363 q 723 213 750 282 q 648 94 696 144 q 534 15 600 43 q 390 -14 468 -14 q 249 15 313 -14 q 139 94 185 43 q 67 213 93 144 q 42 363 42 282 l 42 944 m 361 1217 l 244 1217 l 244 1193 l 381 1014 l 460 1014 l 361 1217 z "},"Ú":{"ha":792,"x_min":42,"x_max":750,"o":"m 42 944 l 125 944 l 125 363 q 144 246 125 300 q 197 153 163 192 q 281 92 232 114 q 389 69 329 69 q 499 91 449 69 q 588 151 550 113 q 646 244 625 190 q 667 363 667 299 l 667 944 l 750 944 l 750 363 q 723 213 750 282 q 648 94 696 144 q 534 15 600 43 q 390 -14 468 -14 q 249 15 313 -14 q 139 94 185 43 q 67 213 93 144 q 42 363 42 282 l 42 944 m 426 1217 l 542 1217 l 542 1193 l 406 1014 l 326 1014 l 426 1217 z "},"Û":{"ha":792,"x_min":42,"x_max":750,"o":"m 42 944 l 125 944 l 125 363 q 144 246 125 300 q 197 153 163 192 q 281 92 232 114 q 389 69 329 69 q 499 91 449 69 q 588 151 550 113 q 646 244 625 190 q 667 363 667 299 l 667 944 l 750 944 l 750 363 q 723 213 750 282 q 648 94 696 144 q 534 15 600 43 q 390 -14 468 -14 q 249 15 313 -14 q 139 94 185 43 q 67 213 93 144 q 42 363 42 282 l 42 944 m 317 1217 l 433 1217 l 433 1193 l 297 1014 l 218 1014 l 317 1217 m 472 1217 l 572 1014 l 493 1014 l 357 1193 l 357 1217 l 472 1217 z "},"Ü":{"ha":792,"x_min":42,"x_max":750,"o":"m 42 944 l 125 944 l 125 363 q 144 246 125 300 q 197 153 163 192 q 281 92 232 114 q 389 69 329 69 q 499 91 449 69 q 588 151 550 113 q 646 244 625 190 q 667 363 667 299 l 667 944 l 750 944 l 750 363 q 723 213 750 282 q 648 94 696 144 q 534 15 600 43 q 390 -14 468 -14 q 249 15 313 -14 q 139 94 185 43 q 67 213 93 144 q 42 363 42 282 l 42 944 m 207 1014 l 332 1014 l 332 1149 l 207 1149 l 207 1014 m 458 1014 l 583 1014 l 583 1149 l 458 1149 l 458 1014 z "},"Ý":{"ha":792,"x_min":42,"x_max":750,"o":"m 354 0 l 438 0 l 438 389 l 354 389 l 354 0 m 354 375 l 438 375 l 126 944 l 42 944 l 354 375 m 354 375 l 438 375 l 750 944 l 665 944 l 354 375 m 431 1217 l 546 1217 l 546 1193 l 410 1014 l 331 1014 l 431 1217 z "},"Ā":{"ha":836,"x_min":42,"x_max":750,"o":"m 190 260 l 600 260 l 600 343 l 190 343 l 190 260 m 42 0 l 129 0 l 396 813 l 439 944 l 396 944 l 351 944 l 42 0 m 440 944 l 396 944 l 353 944 l 396 813 l 663 0 l 750 0 l 440 944 m 167 1014 l 625 1014 l 625 1097 l 167 1097 l 167 1014 z "},"Ă":{"ha":836,"x_min":42,"x_max":750,"o":"m 190 260 l 600 260 l 600 343 l 190 343 l 190 260 m 42 0 l 129 0 l 396 813 l 439 944 l 396 944 l 351 944 l 42 0 m 440 944 l 396 944 l 353 944 l 396 813 l 663 0 l 750 0 l 440 944 m 168 1194 l 251 1194 q 293 1116 251 1142 q 396 1090 335 1090 q 500 1117 457 1090 q 543 1194 543 1143 l 625 1194 q 565 1066 625 1118 q 396 1014 504 1014 q 228 1066 289 1014 q 168 1194 168 1118 z "},"Ą":{"ha":836,"x_min":42,"x_max":750,"o":"m 190 260 l 600 260 l 600 343 l 190 343 l 190 260 m 42 0 l 129 0 l 396 813 l 439 944 l 396 944 l 351 944 l 42 0 m 440 944 l 396 944 l 353 944 l 396 813 l 663 0 l 750 0 l 440 944 m 694 3 q 725 1 706 3 q 750 0 744 0 q 626 -62 664 -33 q 589 -118 589 -90 q 592 -140 589 -131 q 603 -156 596 -150 q 623 -166 611 -162 q 650 -168 635 -169 l 750 -168 l 750 -265 q 728 -265 750 -265 q 681 -265 707 -265 q 633 -265 654 -265 q 611 -265 611 -265 q 518 -240 549 -265 q 488 -164 488 -215 q 504 -117 488 -140 q 549 -72 521 -94 q 614 -31 576 -50 q 694 3 651 -11 z "},"Ć":{"ha":878,"x_min":43,"x_max":750,"o":"m 750 354 q 717 201 743 269 q 647 85 692 133 q 540 12 603 38 q 397 -14 478 -14 q 244 16 311 -14 q 133 101 178 46 q 66 235 89 157 q 43 410 43 313 l 43 535 q 66 710 43 632 q 133 844 89 789 q 244 928 178 899 q 397 958 311 958 q 647 859 558 958 q 750 590 736 760 l 667 590 q 643 706 661 654 q 592 796 625 758 q 511 854 560 833 q 397 875 463 875 q 274 850 325 875 q 189 780 222 825 q 140 672 156 735 q 125 535 125 610 l 125 410 q 140 272 125 335 q 189 165 156 210 q 274 94 222 119 q 397 69 325 69 q 511 90 463 69 q 592 149 560 111 q 643 238 625 186 q 667 354 661 290 l 750 354 m 431 1217 l 546 1217 l 546 1193 l 410 1014 l 331 1014 l 431 1217 z "},"Ĉ":{"ha":878,"x_min":43,"x_max":750,"o":"m 750 354 q 717 201 743 269 q 647 85 692 133 q 540 12 603 38 q 397 -14 478 -14 q 244 16 311 -14 q 133 101 178 46 q 66 235 89 157 q 43 410 43 313 l 43 535 q 66 710 43 632 q 133 844 89 789 q 244 928 178 899 q 397 958 311 958 q 647 859 558 958 q 750 590 736 760 l 667 590 q 643 706 661 654 q 592 796 625 758 q 511 854 560 833 q 397 875 463 875 q 274 850 325 875 q 189 780 222 825 q 140 672 156 735 q 125 535 125 610 l 125 410 q 140 272 125 335 q 189 165 156 210 q 274 94 222 119 q 397 69 325 69 q 511 90 463 69 q 592 149 560 111 q 643 238 625 186 q 667 354 661 290 l 750 354 m 319 1217 l 436 1217 l 436 1193 l 300 1014 l 221 1014 l 319 1217 m 475 1217 l 575 1014 l 496 1014 l 360 1193 l 360 1217 l 475 1217 z "},"Ċ":{"ha":878,"x_min":43,"x_max":750,"o":"m 750 354 q 717 201 743 269 q 647 85 692 133 q 540 12 603 38 q 397 -14 478 -14 q 244 16 311 -14 q 133 101 178 46 q 66 235 89 157 q 43 410 43 313 l 43 535 q 66 710 43 632 q 133 844 89 789 q 244 928 178 899 q 397 958 311 958 q 647 859 558 958 q 750 590 736 760 l 667 590 q 643 706 661 654 q 592 796 625 758 q 511 854 560 833 q 397 875 463 875 q 274 850 325 875 q 189 780 222 825 q 140 672 156 735 q 125 535 125 610 l 125 410 q 140 272 125 335 q 189 165 156 210 q 274 94 222 119 q 397 69 325 69 q 511 90 463 69 q 592 149 560 111 q 643 238 625 186 q 667 354 661 290 l 750 354 m 335 1014 l 460 1014 l 460 1149 l 335 1149 l 335 1014 z "},"Č":{"ha":878,"x_min":43,"x_max":750,"o":"m 750 354 q 717 201 743 269 q 647 85 692 133 q 540 12 603 38 q 397 -14 478 -14 q 244 16 311 -14 q 133 101 178 46 q 66 235 89 157 q 43 410 43 313 l 43 535 q 66 710 43 632 q 133 844 89 789 q 244 928 178 899 q 397 958 311 958 q 647 859 558 958 q 750 590 736 760 l 667 590 q 643 706 661 654 q 592 796 625 758 q 511 854 560 833 q 397 875 463 875 q 274 850 325 875 q 189 780 222 825 q 140 672 156 735 q 125 535 125 610 l 125 410 q 140 272 125 335 q 189 165 156 210 q 274 94 222 119 q 397 69 325 69 q 511 90 463 69 q 592 149 560 111 q 643 238 625 186 q 667 354 661 290 l 750 354 m 319 1014 l 436 1014 l 436 1038 l 300 1217 l 221 1217 l 319 1014 m 475 1014 l 575 1217 l 496 1217 l 360 1038 l 360 1014 l 475 1014 z "},"Ď":{"ha":1014,"x_min":42,"x_max":750,"o":"m 42 0 l 125 0 l 125 944 l 42 944 l 42 0 m 106 0 l 353 0 q 506 27 433 0 q 632 111 578 54 q 718 257 686 168 q 750 469 750 346 q 718 683 750 593 q 632 831 686 772 q 506 917 578 889 q 353 944 433 944 l 106 944 l 106 861 l 332 861 q 583 762 500 861 q 667 469 667 663 q 583 180 667 276 q 332 83 500 83 l 106 83 l 106 0 m 275 1014 l 392 1014 l 392 1038 l 256 1217 l 176 1217 l 275 1014 m 431 1014 l 531 1217 l 451 1217 l 315 1038 l 315 1014 l 431 1014 z "},"Ē":{"ha":792,"x_min":42,"x_max":686,"o":"m 42 0 l 125 0 l 125 944 l 42 944 l 42 0 m 106 861 l 686 861 l 686 944 l 106 944 l 106 861 m 106 0 l 686 0 l 686 83 l 106 83 l 106 0 m 106 431 l 631 431 l 631 514 l 106 514 l 106 431 m 136 1014 l 594 1014 l 594 1097 l 136 1097 l 136 1014 z "},"Ĕ":{"ha":792,"x_min":42,"x_max":686,"o":"m 42 0 l 125 0 l 125 944 l 42 944 l 42 0 m 106 861 l 686 861 l 686 944 l 106 944 l 106 861 m 106 0 l 686 0 l 686 83 l 106 83 l 106 0 m 106 431 l 631 431 l 631 514 l 106 514 l 106 431 m 135 1194 l 218 1194 q 260 1116 218 1142 q 363 1090 301 1090 q 467 1117 424 1090 q 510 1194 510 1143 l 592 1194 q 531 1066 592 1118 q 363 1014 471 1014 q 195 1066 256 1014 q 135 1194 135 1118 z "},"Ė":{"ha":792,"x_min":42,"x_max":686,"o":"m 42 0 l 125 0 l 125 944 l 42 944 l 42 0 m 106 861 l 686 861 l 686 944 l 106 944 l 106 861 m 106 0 l 686 0 l 686 83 l 106 83 l 106 0 m 106 431 l 631 431 l 631 514 l 106 514 l 106 431 m 333 1014 l 458 1014 l 458 1149 l 333 1149 l 333 1014 z "},"Ę":{"ha":792,"x_min":42,"x_max":686,"o":"m 42 0 l 125 0 l 125 944 l 42 944 l 42 0 m 106 861 l 686 861 l 686 944 l 106 944 l 106 861 m 106 0 l 686 0 l 686 83 l 106 83 l 106 0 m 106 431 l 631 431 l 631 514 l 106 514 l 106 431 z "},"Ě":{"ha":792,"x_min":42,"x_max":686,"o":"m 42 0 l 125 0 l 125 944 l 42 944 l 42 0 m 106 861 l 686 861 l 686 944 l 106 944 l 106 861 m 106 0 l 686 0 l 686 83 l 106 83 l 106 0 m 106 431 l 631 431 l 631 514 l 106 514 l 106 431 m 318 1014 l 435 1014 l 435 1038 l 299 1217 l 219 1217 l 318 1014 m 474 1014 l 574 1217 l 494 1217 l 358 1038 l 358 1014 l 474 1014 z "},"Ĝ":{"ha":788,"x_min":43,"x_max":750,"o":"m 433 343 l 750 343 l 750 413 l 433 413 l 433 343 m 667 0 l 750 0 l 750 399 l 667 399 l 667 0 m 667 354 q 643 238 661 290 q 592 149 625 186 q 511 90 560 111 q 397 69 463 69 q 274 94 325 69 q 189 165 222 119 q 140 272 156 210 q 125 410 125 335 l 125 535 q 140 672 125 610 q 189 780 156 735 q 274 850 222 825 q 397 875 325 875 q 511 854 463 875 q 592 796 560 833 q 643 706 625 758 q 667 590 661 654 l 750 590 q 647 859 736 760 q 397 958 558 958 q 244 928 311 958 q 133 844 178 899 q 66 710 89 789 q 43 535 43 632 l 43 410 q 66 235 43 313 q 133 101 89 157 q 244 16 178 46 q 397 -14 311 -14 q 534 13 478 -14 q 626 87 590 39 q 678 203 661 135 q 694 354 694 271 l 667 354 m 319 1217 l 436 1217 l 436 1193 l 300 1014 l 221 1014 l 319 1217 m 475 1217 l 575 1014 l 496 1014 l 360 1193 l 360 1217 l 475 1217 z "},"Ğ":{"ha":788,"x_min":43,"x_max":750,"o":"m 433 343 l 750 343 l 750 413 l 433 413 l 433 343 m 667 0 l 750 0 l 750 399 l 667 399 l 667 0 m 667 354 q 643 238 661 290 q 592 149 625 186 q 511 90 560 111 q 397 69 463 69 q 274 94 325 69 q 189 165 222 119 q 140 272 156 210 q 125 410 125 335 l 125 535 q 140 672 125 610 q 189 780 156 735 q 274 850 222 825 q 397 875 325 875 q 511 854 463 875 q 592 796 560 833 q 643 706 625 758 q 667 590 661 654 l 750 590 q 647 859 736 760 q 397 958 558 958 q 244 928 311 958 q 133 844 178 899 q 66 710 89 789 q 43 535 43 632 l 43 410 q 66 235 43 313 q 133 101 89 157 q 244 16 178 46 q 397 -14 311 -14 q 534 13 478 -14 q 626 87 590 39 q 678 203 661 135 q 694 354 694 271 l 667 354 m 168 1139 l 251 1139 q 293 1060 251 1086 q 396 1035 335 1035 q 500 1061 457 1035 q 543 1139 543 1088 l 625 1139 q 565 1010 625 1063 q 396 958 504 958 q 228 1010 289 958 q 168 1139 168 1063 z "},"Ġ":{"ha":788,"x_min":43,"x_max":750,"o":"m 433 343 l 750 343 l 750 413 l 433 413 l 433 343 m 667 0 l 750 0 l 750 399 l 667 399 l 667 0 m 667 354 q 643 238 661 290 q 592 149 625 186 q 511 90 560 111 q 397 69 463 69 q 274 94 325 69 q 189 165 222 119 q 140 272 156 210 q 125 410 125 335 l 125 535 q 140 672 125 610 q 189 780 156 735 q 274 850 222 825 q 397 875 325 875 q 511 854 463 875 q 592 796 560 833 q 643 706 625 758 q 667 590 661 654 l 750 590 q 647 859 736 760 q 397 958 558 958 q 244 928 311 958 q 133 844 178 899 q 66 710 89 789 q 43 535 43 632 l 43 410 q 66 235 43 313 q 133 101 89 157 q 244 16 178 46 q 397 -14 311 -14 q 534 13 478 -14 q 626 87 590 39 q 678 203 661 135 q 694 354 694 271 l 667 354 m 335 1000 l 460 1000 l 460 1135 l 335 1135 l 335 1000 z "},"Ģ":{"ha":788,"x_min":43,"x_max":750,"o":"m 433 343 l 750 343 l 750 413 l 433 413 l 433 343 m 667 0 l 750 0 l 750 399 l 667 399 l 667 0 m 667 354 q 643 238 661 290 q 592 149 625 186 q 511 90 560 111 q 397 69 463 69 q 274 94 325 69 q 189 165 222 119 q 140 272 156 210 q 125 410 125 335 l 125 535 q 140 672 125 610 q 189 780 156 735 q 274 850 222 825 q 397 875 325 875 q 511 854 463 875 q 592 796 560 833 q 643 706 625 758 q 667 590 661 654 l 750 590 q 647 859 736 760 q 397 958 558 958 q 244 928 311 958 q 133 844 178 899 q 66 710 89 789 q 43 535 43 632 l 43 410 q 66 235 43 313 q 133 101 89 157 q 244 16 178 46 q 397 -14 311 -14 q 534 13 478 -14 q 626 87 590 39 q 678 203 661 135 q 694 354 694 271 l 667 354 z "},"Ĥ":{"ha":792,"x_min":42,"x_max":750,"o":"m 42 0 l 125 0 l 125 944 l 42 944 l 42 0 m 667 0 l 750 0 l 750 944 l 667 944 l 667 0 m 106 447 l 686 447 l 686 531 l 106 531 l 106 447 m 318 1217 l 435 1217 l 435 1193 l 299 1014 l 219 1014 l 318 1217 m 474 1217 l 574 1014 l 494 1014 l 358 1193 l 358 1217 l 474 1217 z "},"Ĩ":{"ha":792,"x_min":42,"x_max":750,"o":"m 42 0 l 750 0 l 750 83 l 42 83 l 42 0 m 42 861 l 750 861 l 750 944 l 42 944 l 42 861 m 354 46 l 438 46 l 438 903 l 354 903 l 354 46 m 136 1014 q 171 1125 136 1081 q 275 1169 206 1169 q 352 1156 322 1169 q 406 1124 382 1142 q 454 1093 431 1107 q 511 1079 478 1079 q 558 1099 542 1079 q 574 1156 574 1118 l 657 1156 q 622 1044 657 1089 q 518 1000 588 1000 q 441 1014 471 1000 q 387 1045 411 1028 q 339 1076 363 1063 q 282 1090 315 1090 q 235 1071 251 1090 q 219 1014 219 1051 l 136 1014 z "},"Ī":{"ha":792,"x_min":42,"x_max":750,"o":"m 42 0 l 750 0 l 750 83 l 42 83 l 42 0 m 42 861 l 750 861 l 750 944 l 42 944 l 42 861 m 354 46 l 438 46 l 438 903 l 354 903 l 354 46 m 167 1014 l 625 1014 l 625 1097 l 167 1097 l 167 1014 z "},"Ĭ":{"ha":792,"x_min":42,"x_max":750,"o":"m 42 0 l 750 0 l 750 83 l 42 83 l 42 0 m 42 861 l 750 861 l 750 944 l 42 944 l 42 861 m 354 46 l 438 46 l 438 903 l 354 903 l 354 46 m 165 1194 l 249 1194 q 290 1116 249 1142 q 393 1090 332 1090 q 497 1117 454 1090 q 540 1194 540 1143 l 622 1194 q 562 1066 622 1118 q 393 1014 501 1014 q 226 1066 286 1014 q 165 1194 165 1118 z "},"Į":{"ha":792,"x_min":42,"x_max":750,"o":"m 42 0 l 750 0 l 750 83 l 42 83 l 42 0 m 42 861 l 750 861 l 750 944 l 42 944 l 42 861 m 354 46 l 438 46 l 438 903 l 354 903 l 354 46 m 694 3 q 725 1 706 3 q 750 0 744 0 q 626 -62 664 -33 q 589 -118 589 -90 q 592 -140 589 -131 q 603 -156 596 -150 q 623 -166 611 -162 q 650 -168 635 -169 l 750 -168 l 750 -265 q 728 -265 750 -265 q 681 -265 707 -265 q 633 -265 654 -265 q 611 -265 611 -265 q 518 -240 549 -265 q 488 -164 488 -215 q 504 -117 488 -140 q 549 -72 521 -94 q 614 -31 576 -50 q 694 3 651 -11 z "},"İ":{"ha":792,"x_min":42,"x_max":750,"o":"m 42 0 l 750 0 l 750 83 l 42 83 l 42 0 m 42 861 l 750 861 l 750 944 l 42 944 l 42 861 m 354 46 l 438 46 l 438 903 l 354 903 l 354 46 m 333 1014 l 458 1014 l 458 1149 l 333 1149 l 333 1014 z "},"Ĵ":{"ha":792,"x_min":42,"x_max":750,"o":"m 125 363 q 144 246 125 300 q 197 153 163 192 q 281 92 232 114 q 389 69 329 69 q 499 91 449 69 q 588 151 550 113 q 646 244 625 190 q 667 363 667 299 l 667 944 l 750 944 l 750 363 q 723 213 750 282 q 648 94 696 144 q 534 15 600 43 q 390 -14 468 -14 q 249 15 313 -14 q 139 94 185 43 q 67 213 93 144 q 42 363 42 282 l 125 363 m 221 944 l 701 944 l 701 861 l 221 861 l 221 944 m 411 1217 l 528 1217 l 528 1193 l 392 1014 l 313 1014 l 411 1217 m 567 1217 l 667 1014 l 588 1014 l 451 1193 l 451 1217 l 567 1217 z "},"à":{"ha":792,"x_min":42,"x_max":693,"o":"m 565 428 l 565 140 q 567 80 565 106 q 579 36 569 54 q 609 9 589 18 q 667 0 629 0 l 693 0 l 693 97 l 649 97 l 649 407 q 632 528 649 472 q 582 624 615 583 q 497 686 549 664 q 372 708 444 708 q 242 685 299 708 q 149 624 186 661 q 92 540 111 586 q 74 450 74 494 l 157 450 q 175 522 157 490 q 223 577 193 554 q 290 613 253 600 q 367 625 328 625 q 513 574 461 625 q 565 428 565 524 m 601 433 q 525 429 564 432 q 450 424 490 426 q 371 418 410 421 q 256 405 314 415 q 149 371 197 394 q 72 306 101 347 q 42 200 42 265 q 97 47 42 107 q 261 -14 153 -14 q 452 19 381 -14 q 561 102 524 51 q 610 215 599 153 q 621 333 621 276 q 612 333 621 333 q 592 333 603 333 q 565 333 581 333 q 556 238 565 286 q 519 151 547 190 q 438 88 492 113 q 294 64 385 64 q 169 92 213 64 q 125 194 125 119 q 146 263 125 236 q 202 304 167 289 q 282 326 238 319 q 374 335 326 332 q 444 340 404 338 q 518 346 483 343 q 577 350 553 349 q 601 351 601 351 l 601 433 m 361 968 l 244 968 l 244 944 l 381 765 l 460 765 l 361 968 z "},"á":{"ha":792,"x_min":42,"x_max":693,"o":"m 565 428 l 565 140 q 567 80 565 106 q 579 36 569 54 q 609 9 589 18 q 667 0 629 0 l 693 0 l 693 97 l 649 97 l 649 407 q 632 528 649 472 q 582 624 615 583 q 497 686 549 664 q 372 708 444 708 q 242 685 299 708 q 149 624 186 661 q 92 540 111 586 q 74 450 74 494 l 157 450 q 175 522 157 490 q 223 577 193 554 q 290 613 253 600 q 367 625 328 625 q 513 574 461 625 q 565 428 565 524 m 601 433 q 525 429 564 432 q 450 424 490 426 q 371 418 410 421 q 256 405 314 415 q 149 371 197 394 q 72 306 101 347 q 42 200 42 265 q 97 47 42 107 q 261 -14 153 -14 q 452 19 381 -14 q 561 102 524 51 q 610 215 599 153 q 621 333 621 276 q 612 333 621 333 q 592 333 603 333 q 565 333 581 333 q 556 238 565 286 q 519 151 547 190 q 438 88 492 113 q 294 64 385 64 q 169 92 213 64 q 125 194 125 119 q 146 263 125 236 q 202 304 167 289 q 282 326 238 319 q 374 335 326 332 q 444 340 404 338 q 518 346 483 343 q 577 350 553 349 q 601 351 601 351 l 601 433 m 389 968 l 504 968 l 504 944 l 368 765 l 289 765 l 389 968 z "},"â":{"ha":792,"x_min":42,"x_max":693,"o":"m 565 428 l 565 140 q 567 80 565 106 q 579 36 569 54 q 609 9 589 18 q 667 0 629 0 l 693 0 l 693 97 l 649 97 l 649 407 q 632 528 649 472 q 582 624 615 583 q 497 686 549 664 q 372 708 444 708 q 242 685 299 708 q 149 624 186 661 q 92 540 111 586 q 74 450 74 494 l 157 450 q 175 522 157 490 q 223 577 193 554 q 290 613 253 600 q 367 625 328 625 q 513 574 461 625 q 565 428 565 524 m 601 433 q 525 429 564 432 q 450 424 490 426 q 371 418 410 421 q 256 405 314 415 q 149 371 197 394 q 72 306 101 347 q 42 200 42 265 q 97 47 42 107 q 261 -14 153 -14 q 452 19 381 -14 q 561 102 524 51 q 610 215 599 153 q 621 333 621 276 q 612 333 621 333 q 592 333 603 333 q 565 333 581 333 q 556 238 565 286 q 519 151 547 190 q 438 88 492 113 q 294 64 385 64 q 169 92 213 64 q 125 194 125 119 q 146 263 125 236 q 202 304 167 289 q 282 326 238 319 q 374 335 326 332 q 444 340 404 338 q 518 346 483 343 q 577 350 553 349 q 601 351 601 351 l 601 433 m 294 968 l 411 968 l 411 944 l 275 765 l 196 765 l 294 968 m 450 968 l 550 765 l 471 765 l 335 944 l 335 968 l 450 968 z "},"ã":{"ha":792,"x_min":42,"x_max":693,"o":"m 565 428 l 565 140 q 567 80 565 106 q 579 36 569 54 q 609 9 589 18 q 667 0 629 0 l 693 0 l 693 97 l 649 97 l 649 407 q 632 528 649 472 q 582 624 615 583 q 497 686 549 664 q 372 708 444 708 q 242 685 299 708 q 149 624 186 661 q 92 540 111 586 q 74 450 74 494 l 157 450 q 175 522 157 490 q 223 577 193 554 q 290 613 253 600 q 367 625 328 625 q 513 574 461 625 q 565 428 565 524 m 601 433 q 525 429 564 432 q 450 424 490 426 q 371 418 410 421 q 256 405 314 415 q 149 371 197 394 q 72 306 101 347 q 42 200 42 265 q 97 47 42 107 q 261 -14 153 -14 q 452 19 381 -14 q 561 102 524 51 q 610 215 599 153 q 621 333 621 276 q 612 333 621 333 q 592 333 603 333 q 565 333 581 333 q 556 238 565 286 q 519 151 547 190 q 438 88 492 113 q 294 64 385 64 q 169 92 213 64 q 125 194 125 119 q 146 263 125 236 q 202 304 167 289 q 282 326 238 319 q 374 335 326 332 q 444 340 404 338 q 518 346 483 343 q 577 350 553 349 q 601 351 601 351 l 601 433 m 110 803 q 144 914 110 869 q 249 958 179 958 q 326 944 296 958 q 380 913 356 931 q 428 882 404 896 q 485 868 451 868 q 531 888 515 868 q 547 944 547 907 l 631 944 q 596 833 631 878 q 492 789 561 789 q 415 803 444 789 q 360 834 385 817 q 313 865 336 851 q 256 879 289 879 q 209 860 225 879 q 193 803 193 840 l 110 803 z "},"ä":{"ha":792,"x_min":42,"x_max":693,"o":"m 565 428 l 565 140 q 567 80 565 106 q 579 36 569 54 q 609 9 589 18 q 667 0 629 0 l 693 0 l 693 97 l 649 97 l 649 407 q 632 528 649 472 q 582 624 615 583 q 497 686 549 664 q 372 708 444 708 q 242 685 299 708 q 149 624 186 661 q 92 540 111 586 q 74 450 74 494 l 157 450 q 175 522 157 490 q 223 577 193 554 q 290 613 253 600 q 367 625 328 625 q 513 574 461 625 q 565 428 565 524 m 601 433 q 525 429 564 432 q 450 424 490 426 q 371 418 410 421 q 256 405 314 415 q 149 371 197 394 q 72 306 101 347 q 42 200 42 265 q 97 47 42 107 q 261 -14 153 -14 q 452 19 381 -14 q 561 102 524 51 q 610 215 599 153 q 621 333 621 276 q 612 333 621 333 q 592 333 603 333 q 565 333 581 333 q 556 238 565 286 q 519 151 547 190 q 438 88 492 113 q 294 64 385 64 q 169 92 213 64 q 125 194 125 119 q 146 263 125 236 q 202 304 167 289 q 282 326 238 319 q 374 335 326 332 q 444 340 404 338 q 518 346 483 343 q 577 350 553 349 q 601 351 601 351 l 601 433 m 185 810 l 310 810 l 310 944 l 185 944 l 185 810 m 436 810 l 561 810 l 561 944 l 436 944 l 436 810 z "},"å":{"ha":792,"x_min":42,"x_max":693,"o":"m 565 428 l 565 140 q 567 80 565 106 q 579 36 569 54 q 609 9 589 18 q 667 0 629 0 l 693 0 l 693 97 l 649 97 l 649 407 q 632 528 649 472 q 582 624 615 583 q 497 686 549 664 q 372 708 444 708 q 242 685 299 708 q 149 624 186 661 q 92 540 111 586 q 74 450 74 494 l 157 450 q 175 522 157 490 q 223 577 193 554 q 290 613 253 600 q 367 625 328 625 q 513 574 461 625 q 565 428 565 524 m 601 433 q 525 429 564 432 q 450 424 490 426 q 371 418 410 421 q 256 405 314 415 q 149 371 197 394 q 72 306 101 347 q 42 200 42 265 q 97 47 42 107 q 261 -14 153 -14 q 452 19 381 -14 q 561 102 524 51 q 610 215 599 153 q 621 333 621 276 q 612 333 621 333 q 592 333 603 333 q 565 333 581 333 q 556 238 565 286 q 519 151 547 190 q 438 88 492 113 q 294 64 385 64 q 169 92 213 64 q 125 194 125 119 q 146 263 125 236 q 202 304 167 289 q 282 326 238 319 q 374 335 326 332 q 444 340 404 338 q 518 346 483 343 q 577 350 553 349 q 601 351 601 351 l 601 433 m 236 890 q 273 990 236 953 q 374 1028 310 1028 q 473 990 435 1028 q 511 890 511 953 q 473 790 511 828 q 374 753 435 753 q 273 790 310 753 q 236 890 236 828 m 293 890 q 315 833 293 854 q 374 811 338 811 q 431 833 408 811 q 453 890 453 854 q 431 948 453 926 q 374 969 408 969 q 315 948 338 969 q 293 890 293 926 z "},"æ":{"ha":1260,"x_min":43,"x_max":1218,"o":"m 567 428 l 567 279 l 650 279 l 650 407 q 633 528 650 472 q 583 624 617 583 q 498 686 550 664 q 374 708 446 708 q 244 685 300 708 q 150 624 188 661 q 94 540 113 586 q 75 450 75 494 l 158 450 q 176 522 158 490 q 224 577 194 554 q 292 613 254 600 q 368 625 329 625 q 515 574 463 625 q 567 428 567 524 m 603 433 q 526 429 565 432 q 451 424 492 426 q 372 418 411 421 q 257 405 315 415 q 151 371 199 394 q 73 306 103 347 q 43 200 43 265 q 99 47 43 107 q 263 -14 154 -14 q 453 19 382 -14 q 563 102 525 51 q 611 215 600 153 q 622 333 622 276 q 613 333 622 333 q 594 333 604 333 q 567 333 582 333 q 558 238 567 286 q 521 151 549 190 q 440 88 493 113 q 296 64 386 64 q 170 92 214 64 q 126 194 126 119 q 147 263 126 236 q 203 304 168 289 q 283 326 239 319 q 375 335 328 332 q 445 340 406 338 q 519 346 485 343 q 578 350 554 349 q 603 351 603 351 l 603 433 m 628 325 l 1217 325 l 1218 347 l 1149 408 l 628 408 l 628 325 m 1124 244 q 1047 113 1104 156 q 892 69 989 69 q 710 138 769 69 q 650 347 650 207 q 710 556 650 486 q 892 625 769 625 q 1074 556 1014 625 q 1135 347 1135 488 l 1218 347 q 1131 612 1218 515 q 892 708 1043 708 q 759 685 818 708 q 658 617 700 661 q 593 510 617 574 q 567 368 569 447 q 567 363 567 365 q 567 357 567 360 q 567 351 567 354 q 567 347 567 349 q 653 82 567 178 q 892 -14 739 -14 q 1101 54 1018 -14 q 1207 244 1183 122 l 1124 244 z "},"ç":{"ha":726,"x_min":42,"x_max":685,"o":"m 685 256 q 579 57 661 128 q 367 -14 497 -14 q 128 82 215 -14 q 42 347 42 178 q 128 612 42 515 q 367 708 215 708 q 576 640 494 708 q 683 450 658 572 l 599 450 q 522 582 579 539 q 367 625 464 625 q 185 556 246 625 q 125 347 125 486 q 185 138 125 207 q 367 69 246 69 q 526 115 468 69 q 601 256 583 161 l 685 256 m 371 0 l 461 0 l 385 -79 q 435 -69 410 -67 q 481 -83 461 -71 q 515 -115 501 -94 q 528 -162 528 -136 q 497 -241 528 -217 q 400 -265 467 -265 l 297 -265 l 297 -182 l 396 -182 q 438 -170 425 -181 q 450 -137 450 -160 q 439 -112 450 -121 q 410 -103 428 -103 q 388 -108 397 -103 q 374 -121 379 -114 q 363 -139 367 -129 l 308 -115 l 371 0 z "},"è":{"ha":735,"x_min":42,"x_max":693,"o":"m 104 325 l 693 325 l 693 347 l 625 408 l 104 408 l 104 325 m 600 244 q 522 113 581 156 q 367 69 464 69 q 185 138 246 69 q 125 347 125 207 q 185 556 125 486 q 367 625 246 625 q 550 556 490 625 q 610 347 610 488 l 693 347 q 606 612 693 515 q 367 708 519 708 q 128 612 215 708 q 42 347 42 515 q 128 82 42 178 q 367 -14 215 -14 q 576 54 494 -14 q 683 244 658 122 l 600 244 m 376 968 l 260 968 l 260 944 l 396 765 l 475 765 l 376 968 z "},"é":{"ha":735,"x_min":42,"x_max":693,"o":"m 104 325 l 693 325 l 693 347 l 625 408 l 104 408 l 104 325 m 600 244 q 522 113 581 156 q 367 69 464 69 q 185 138 246 69 q 125 347 125 207 q 185 556 125 486 q 367 625 246 625 q 550 556 490 625 q 610 347 610 488 l 693 347 q 606 612 693 515 q 367 708 519 708 q 128 612 215 708 q 42 347 42 515 q 128 82 42 178 q 367 -14 215 -14 q 576 54 494 -14 q 683 244 658 122 l 600 244 m 365 1132 l 481 1132 l 481 1108 l 344 929 l 265 929 l 365 1132 z "},"ê":{"ha":735,"x_min":42,"x_max":693,"o":"m 104 325 l 693 325 l 693 347 l 625 408 l 104 408 l 104 325 m 600 244 q 522 113 581 156 q 367 69 464 69 q 185 138 246 69 q 125 347 125 207 q 185 556 125 486 q 367 625 246 625 q 550 556 490 625 q 610 347 610 488 l 693 347 q 606 612 693 515 q 367 708 519 708 q 128 612 215 708 q 42 347 42 515 q 128 82 42 178 q 367 -14 215 -14 q 576 54 494 -14 q 683 244 658 122 l 600 244 m 288 968 l 404 968 l 404 944 l 268 765 l 189 765 l 288 968 m 443 968 l 543 765 l 464 765 l 328 944 l 328 968 l 443 968 z "},"ë":{"ha":735,"x_min":42,"x_max":693,"o":"m 104 325 l 693 325 l 693 347 l 625 408 l 104 408 l 104 325 m 600 244 q 522 113 581 156 q 367 69 464 69 q 185 138 246 69 q 125 347 125 207 q 185 556 125 486 q 367 625 246 625 q 550 556 490 625 q 610 347 610 488 l 693 347 q 606 612 693 515 q 367 708 519 708 q 128 612 215 708 q 42 347 42 515 q 128 82 42 178 q 367 -14 215 -14 q 576 54 494 -14 q 683 244 658 122 l 600 244 m 179 810 l 304 810 l 304 944 l 179 944 l 179 810 m 431 810 l 556 810 l 556 944 l 431 944 l 431 810 z "},"ñ":{"ha":735,"x_min":42,"x_max":694,"o":"m 107 414 l 125 290 q 145 453 125 388 q 199 558 165 518 q 277 615 233 597 q 369 632 321 632 q 485 612 439 632 q 560 553 532 592 q 600 458 589 514 q 611 332 611 401 l 611 0 l 694 0 l 694 353 q 676 496 694 431 q 620 608 657 561 q 528 682 583 656 q 397 708 472 708 q 190 633 263 708 q 107 414 117 557 m 42 0 l 125 0 l 125 694 l 42 694 l 42 0 m 122 803 q 157 914 122 869 q 261 958 192 958 q 338 944 308 958 q 392 913 368 931 q 440 882 417 896 q 497 868 464 868 q 544 888 528 868 q 560 944 560 907 l 643 944 q 608 833 643 878 q 504 789 574 789 q 427 803 457 789 q 373 834 397 817 q 325 865 349 851 q 268 879 301 879 q 222 860 238 879 q 206 803 206 840 l 122 803 z "},"ò":{"ha":736,"x_min":42,"x_max":693,"o":"m 693 347 q 606 612 693 515 q 367 708 519 708 q 128 612 215 708 q 42 347 42 515 q 128 82 42 178 q 367 -14 215 -14 q 606 82 519 -14 q 693 347 693 178 m 610 347 q 550 138 610 207 q 367 69 490 69 q 185 138 246 69 q 125 347 125 207 q 185 556 125 486 q 367 625 246 625 q 550 556 490 625 q 610 347 610 488 m 376 968 l 260 968 l 260 944 l 396 765 l 475 765 l 376 968 z "},"ó":{"ha":736,"x_min":42,"x_max":693,"o":"m 693 347 q 606 612 693 515 q 367 708 519 708 q 128 612 215 708 q 42 347 42 515 q 128 82 42 178 q 367 -14 215 -14 q 606 82 519 -14 q 693 347 693 178 m 610 347 q 550 138 610 207 q 367 69 490 69 q 185 138 246 69 q 125 347 125 207 q 185 556 125 486 q 367 625 246 625 q 550 556 490 625 q 610 347 610 488 m 360 968 l 475 968 l 475 944 l 339 765 l 260 765 l 360 968 z "},"ô":{"ha":736,"x_min":42,"x_max":693,"o":"m 693 347 q 606 612 693 515 q 367 708 519 708 q 128 612 215 708 q 42 347 42 515 q 128 82 42 178 q 367 -14 215 -14 q 606 82 519 -14 q 693 347 693 178 m 610 347 q 550 138 610 207 q 367 69 490 69 q 185 138 246 69 q 125 347 125 207 q 185 556 125 486 q 367 625 246 625 q 550 556 490 625 q 610 347 610 488 m 288 968 l 404 968 l 404 944 l 268 765 l 189 765 l 288 968 m 443 968 l 543 765 l 464 765 l 328 944 l 328 968 l 443 968 z "},"õ":{"ha":736,"x_min":42,"x_max":693,"o":"m 693 347 q 606 612 693 515 q 367 708 519 708 q 128 612 215 708 q 42 347 42 515 q 128 82 42 178 q 367 -14 215 -14 q 606 82 519 -14 q 693 347 693 178 m 610 347 q 550 138 610 207 q 367 69 490 69 q 185 138 246 69 q 125 347 125 207 q 185 556 125 486 q 367 625 246 625 q 550 556 490 625 q 610 347 610 488 m 107 803 q 142 914 107 869 q 246 958 176 958 q 323 944 293 958 q 377 913 353 931 q 425 882 401 896 q 482 868 449 868 q 528 888 513 868 q 544 944 544 907 l 628 944 q 593 833 628 878 q 489 789 558 789 q 412 803 442 789 q 358 834 382 817 q 310 865 333 851 q 253 879 286 879 q 206 860 222 879 q 190 803 190 840 l 107 803 z "},"ö":{"ha":736,"x_min":42,"x_max":693,"o":"m 693 347 q 606 612 693 515 q 367 708 519 708 q 128 612 215 708 q 42 347 42 515 q 128 82 42 178 q 367 -14 215 -14 q 606 82 519 -14 q 693 347 693 178 m 610 347 q 550 138 610 207 q 367 69 490 69 q 185 138 246 69 q 125 347 125 207 q 185 556 125 486 q 367 625 246 625 q 550 556 490 625 q 610 347 610 488 m 179 810 l 304 810 l 304 944 l 179 944 l 179 810 m 431 810 l 556 810 l 556 944 l 431 944 l 431 810 z "},"ù":{"ha":736,"x_min":42,"x_max":694,"o":"m 694 694 l 597 694 l 597 0 l 694 0 l 694 694 m 617 281 l 597 404 q 579 244 597 307 q 530 143 561 181 q 457 91 499 106 q 367 76 415 76 q 253 94 297 76 q 183 149 208 113 q 148 239 157 185 q 139 363 139 293 l 139 694 l 42 694 l 42 342 q 60 199 42 264 q 116 86 79 133 q 208 13 153 39 q 339 -14 264 -14 q 540 62 474 -14 q 617 281 606 138 m 376 968 l 260 968 l 260 944 l 396 765 l 475 765 l 376 968 z "},"ú":{"ha":736,"x_min":42,"x_max":694,"o":"m 694 694 l 597 694 l 597 0 l 694 0 l 694 694 m 617 281 l 597 404 q 579 244 597 307 q 530 143 561 181 q 457 91 499 106 q 367 76 415 76 q 253 94 297 76 q 183 149 208 113 q 148 239 157 185 q 139 363 139 293 l 139 694 l 42 694 l 42 342 q 60 199 42 264 q 116 86 79 133 q 208 13 153 39 q 339 -14 264 -14 q 540 62 474 -14 q 617 281 606 138 m 386 968 l 501 968 l 501 944 l 365 765 l 286 765 l 386 968 z "},"û":{"ha":736,"x_min":42,"x_max":694,"o":"m 694 694 l 597 694 l 597 0 l 694 0 l 694 694 m 617 281 l 597 404 q 579 244 597 307 q 530 143 561 181 q 457 91 499 106 q 367 76 415 76 q 253 94 297 76 q 183 149 208 113 q 148 239 157 185 q 139 363 139 293 l 139 694 l 42 694 l 42 342 q 60 199 42 264 q 116 86 79 133 q 208 13 153 39 q 339 -14 264 -14 q 540 62 474 -14 q 617 281 606 138 m 290 968 l 407 968 l 407 944 l 271 765 l 192 765 l 290 968 m 446 968 l 546 765 l 467 765 l 331 944 l 331 968 l 446 968 z "},"ü":{"ha":736,"x_min":42,"x_max":694,"o":"m 694 694 l 597 694 l 597 0 l 694 0 l 694 694 m 617 281 l 597 404 q 579 244 597 307 q 530 143 561 181 q 457 91 499 106 q 367 76 415 76 q 253 94 297 76 q 183 149 208 113 q 148 239 157 185 q 139 363 139 293 l 139 694 l 42 694 l 42 342 q 60 199 42 264 q 116 86 79 133 q 208 13 153 39 q 339 -14 264 -14 q 540 62 474 -14 q 617 281 606 138 m 179 810 l 304 810 l 304 944 l 179 944 l 179 810 m 431 810 l 556 810 l 556 944 l 431 944 l 431 810 z "},"ý":{"ha":778,"x_min":42,"x_max":736,"o":"m 347 0 l 431 0 l 125 694 l 42 694 l 347 0 m 347 0 l 431 0 l 736 694 l 653 694 l 347 0 m 374 60 l 301 -107 q 269 -166 282 -151 q 231 -181 257 -181 l 60 -181 l 60 -264 l 214 -264 q 293 -249 265 -264 q 340 -208 321 -235 q 372 -141 358 -181 q 408 -50 386 -101 l 457 60 l 374 60 m 379 968 l 494 968 l 494 944 l 358 765 l 279 765 l 379 968 z "},"ÿ":{"ha":778,"x_min":42,"x_max":736,"o":"m 347 0 l 431 0 l 125 694 l 42 694 l 347 0 m 347 0 l 431 0 l 736 694 l 653 694 l 347 0 m 374 60 l 301 -107 q 269 -166 282 -151 q 231 -181 257 -181 l 60 -181 l 60 -264 l 214 -264 q 293 -249 265 -264 q 340 -208 321 -235 q 372 -141 358 -181 q 408 -50 386 -101 l 457 60 l 374 60 m 200 810 l 325 810 l 325 944 l 200 944 l 200 810 m 451 810 l 576 810 l 576 944 l 451 944 l 451 810 z "},"ā":{"ha":792,"x_min":42,"x_max":693,"o":"m 565 428 l 565 140 q 567 80 565 106 q 579 36 569 54 q 609 9 589 18 q 667 0 629 0 l 693 0 l 693 97 l 649 97 l 649 407 q 632 528 649 472 q 582 624 615 583 q 497 686 549 664 q 372 708 444 708 q 242 685 299 708 q 149 624 186 661 q 92 540 111 586 q 74 450 74 494 l 157 450 q 175 522 157 490 q 223 577 193 554 q 290 613 253 600 q 367 625 328 625 q 513 574 461 625 q 565 428 565 524 m 601 433 q 525 429 564 432 q 450 424 490 426 q 371 418 410 421 q 256 405 314 415 q 149 371 197 394 q 72 306 101 347 q 42 200 42 265 q 97 47 42 107 q 261 -14 153 -14 q 452 19 381 -14 q 561 102 524 51 q 610 215 599 153 q 621 333 621 276 q 612 333 621 333 q 592 333 603 333 q 565 333 581 333 q 556 238 565 286 q 519 151 547 190 q 438 88 492 113 q 294 64 385 64 q 169 92 213 64 q 125 194 125 119 q 146 263 125 236 q 202 304 167 289 q 282 326 238 319 q 374 335 326 332 q 444 340 404 338 q 518 346 483 343 q 577 350 553 349 q 601 351 601 351 l 601 433 m 143 861 l 601 861 l 601 944 l 143 944 l 143 861 z "},"ă":{"ha":792,"x_min":42,"x_max":693,"o":"m 565 428 l 565 140 q 567 80 565 106 q 579 36 569 54 q 609 9 589 18 q 667 0 629 0 l 693 0 l 693 97 l 649 97 l 649 407 q 632 528 649 472 q 582 624 615 583 q 497 686 549 664 q 372 708 444 708 q 242 685 299 708 q 149 624 186 661 q 92 540 111 586 q 74 450 74 494 l 157 450 q 175 522 157 490 q 223 577 193 554 q 290 613 253 600 q 367 625 328 625 q 513 574 461 625 q 565 428 565 524 m 601 433 q 525 429 564 432 q 450 424 490 426 q 371 418 410 421 q 256 405 314 415 q 149 371 197 394 q 72 306 101 347 q 42 200 42 265 q 97 47 42 107 q 261 -14 153 -14 q 452 19 381 -14 q 561 102 524 51 q 610 215 599 153 q 621 333 621 276 q 612 333 621 333 q 592 333 603 333 q 565 333 581 333 q 556 238 565 286 q 519 151 547 190 q 438 88 492 113 q 294 64 385 64 q 169 92 213 64 q 125 194 125 119 q 146 263 125 236 q 202 304 167 289 q 282 326 238 319 q 374 335 326 332 q 444 340 404 338 q 518 346 483 343 q 577 350 553 349 q 601 351 601 351 l 601 433 m 143 944 l 226 944 q 268 866 226 892 q 371 840 310 840 q 475 867 432 840 q 518 944 518 893 l 600 944 q 540 816 600 868 q 371 764 479 764 q 203 816 264 764 q 143 944 143 868 z "},"ą":{"ha":792,"x_min":42,"x_max":693,"o":"m 565 428 l 565 140 q 567 80 565 106 q 579 36 569 54 q 609 9 589 18 q 667 0 629 0 l 693 0 l 693 97 l 649 97 l 649 407 q 632 528 649 472 q 582 624 615 583 q 497 686 549 664 q 372 708 444 708 q 242 685 299 708 q 149 624 186 661 q 92 540 111 586 q 74 450 74 494 l 157 450 q 175 522 157 490 q 223 577 193 554 q 290 613 253 600 q 367 625 328 625 q 513 574 461 625 q 565 428 565 524 m 601 433 q 525 429 564 432 q 450 424 490 426 q 371 418 410 421 q 256 405 314 415 q 149 371 197 394 q 72 306 101 347 q 42 200 42 265 q 97 47 42 107 q 261 -14 153 -14 q 452 19 381 -14 q 561 102 524 51 q 610 215 599 153 q 621 333 621 276 q 612 333 621 333 q 592 333 603 333 q 565 333 581 333 q 556 238 565 286 q 519 151 547 190 q 438 88 492 113 q 294 64 385 64 q 169 92 213 64 q 125 194 125 119 q 146 263 125 236 q 202 304 167 289 q 282 326 238 319 q 374 335 326 332 q 444 340 404 338 q 518 346 483 343 q 577 350 553 349 q 601 351 601 351 l 601 433 m 638 3 q 668 1 649 3 q 693 0 688 0 q 569 -62 607 -33 q 532 -118 532 -90 q 535 -140 532 -131 q 547 -156 539 -150 q 566 -166 554 -162 q 593 -168 578 -169 l 693 -168 l 693 -265 q 672 -265 693 -265 q 624 -265 650 -265 q 576 -265 597 -265 q 554 -265 554 -265 q 461 -240 492 -265 q 431 -164 431 -215 q 447 -117 431 -140 q 492 -72 464 -94 q 557 -31 519 -50 q 638 3 594 -11 z "},"ć":{"ha":726,"x_min":42,"x_max":685,"o":"m 685 256 q 579 57 661 128 q 367 -14 497 -14 q 128 82 215 -14 q 42 347 42 178 q 128 612 42 515 q 367 708 215 708 q 576 640 494 708 q 683 450 658 572 l 599 450 q 522 582 579 539 q 367 625 464 625 q 185 556 246 625 q 125 347 125 486 q 185 138 125 207 q 367 69 246 69 q 526 115 468 69 q 601 256 583 161 l 685 256 m 356 968 l 471 968 l 471 944 l 335 765 l 256 765 l 356 968 z "},"ĉ":{"ha":726,"x_min":42,"x_max":685,"o":"m 685 256 q 579 57 661 128 q 367 -14 497 -14 q 128 82 215 -14 q 42 347 42 178 q 128 612 42 515 q 367 708 215 708 q 576 640 494 708 q 683 450 658 572 l 599 450 q 522 582 579 539 q 367 625 464 625 q 185 556 246 625 q 125 347 125 486 q 185 138 125 207 q 367 69 246 69 q 526 115 468 69 q 601 256 583 161 l 685 256 m 289 968 l 406 968 l 406 944 l 269 765 l 190 765 l 289 968 m 444 968 l 544 765 l 465 765 l 329 944 l 329 968 l 444 968 z "},"ċ":{"ha":726,"x_min":42,"x_max":685,"o":"m 685 256 q 579 57 661 128 q 367 -14 497 -14 q 128 82 215 -14 q 42 347 42 178 q 128 612 42 515 q 367 708 215 708 q 576 640 494 708 q 683 450 658 572 l 599 450 q 522 582 579 539 q 367 625 464 625 q 185 556 246 625 q 125 347 125 486 q 185 138 125 207 q 367 69 246 69 q 526 115 468 69 q 601 256 583 161 l 685 256 m 300 810 l 425 810 l 425 944 l 300 944 l 300 810 z "},"č":{"ha":726,"x_min":42,"x_max":685,"o":"m 685 256 q 579 57 661 128 q 367 -14 497 -14 q 128 82 215 -14 q 42 347 42 178 q 128 612 42 515 q 367 708 215 708 q 576 640 494 708 q 683 450 658 572 l 599 450 q 522 582 579 539 q 367 625 464 625 q 185 556 246 625 q 125 347 125 486 q 185 138 125 207 q 367 69 246 69 q 526 115 468 69 q 601 256 583 161 l 685 256 m 289 765 l 406 765 l 406 789 l 269 968 l 190 968 l 289 765 m 444 765 l 544 968 l 465 968 l 329 789 l 329 765 l 444 765 z "},"ē":{"ha":735,"x_min":42,"x_max":693,"o":"m 104 325 l 693 325 l 693 347 l 625 408 l 104 408 l 104 325 m 600 244 q 522 113 581 156 q 367 69 464 69 q 185 138 246 69 q 125 347 125 207 q 185 556 125 486 q 367 625 246 625 q 550 556 490 625 q 610 347 610 488 l 693 347 q 606 612 693 515 q 367 708 519 708 q 128 612 215 708 q 42 347 42 515 q 128 82 42 178 q 367 -14 215 -14 q 576 54 494 -14 q 683 244 658 122 l 600 244 m 138 861 l 596 861 l 596 944 l 138 944 l 138 861 z "},"ĕ":{"ha":735,"x_min":42,"x_max":693,"o":"m 104 325 l 693 325 l 693 347 l 625 408 l 104 408 l 104 325 m 600 244 q 522 113 581 156 q 367 69 464 69 q 185 138 246 69 q 125 347 125 207 q 185 556 125 486 q 367 625 246 625 q 550 556 490 625 q 610 347 610 488 l 693 347 q 606 612 693 515 q 367 708 519 708 q 128 612 215 708 q 42 347 42 515 q 128 82 42 178 q 367 -14 215 -14 q 576 54 494 -14 q 683 244 658 122 l 600 244 m 136 944 l 219 944 q 261 866 219 892 q 364 840 303 840 q 468 867 425 840 q 511 944 511 893 l 593 944 q 533 816 593 868 q 364 764 472 764 q 197 816 257 764 q 136 944 136 868 z "},"ė":{"ha":735,"x_min":42,"x_max":693,"o":"m 104 325 l 693 325 l 693 347 l 625 408 l 104 408 l 104 325 m 600 244 q 522 113 581 156 q 367 69 464 69 q 185 138 246 69 q 125 347 125 207 q 185 556 125 486 q 367 625 246 625 q 550 556 490 625 q 610 347 610 488 l 693 347 q 606 612 693 515 q 367 708 519 708 q 128 612 215 708 q 42 347 42 515 q 128 82 42 178 q 367 -14 215 -14 q 576 54 494 -14 q 683 244 658 122 l 600 244 m 304 810 l 429 810 l 429 944 l 304 944 l 304 810 z "},"ę":{"ha":735,"x_min":42,"x_max":693,"o":"m 104 325 l 693 325 l 693 347 l 625 408 l 104 408 l 104 325 m 600 244 q 522 113 581 156 q 367 69 464 69 q 185 138 246 69 q 125 347 125 207 q 185 556 125 486 q 367 625 246 625 q 550 556 490 625 q 610 347 610 488 l 693 347 q 606 612 693 515 q 367 708 519 708 q 128 612 215 708 q 42 347 42 515 q 128 82 42 178 q 367 -14 215 -14 q 576 54 494 -14 q 683 244 658 122 l 600 244 m 414 4 q 444 3 425 4 q 469 1 464 1 q 346 -60 383 -32 q 308 -117 308 -89 q 312 -139 308 -129 q 323 -155 315 -149 q 342 -165 331 -161 q 369 -167 354 -168 l 469 -167 l 469 -264 q 448 -264 469 -264 q 400 -264 426 -264 q 352 -264 374 -264 q 331 -264 331 -264 q 238 -239 268 -264 q 207 -162 207 -214 q 224 -116 207 -139 q 268 -71 240 -93 q 333 -29 296 -49 q 414 4 371 -10 z "},"ě":{"ha":735,"x_min":42,"x_max":693,"o":"m 104 325 l 693 325 l 693 347 l 625 408 l 104 408 l 104 325 m 600 244 q 522 113 581 156 q 367 69 464 69 q 185 138 246 69 q 125 347 125 207 q 185 556 125 486 q 367 625 246 625 q 550 556 490 625 q 610 347 610 488 l 693 347 q 606 612 693 515 q 367 708 519 708 q 128 612 215 708 q 42 347 42 515 q 128 82 42 178 q 367 -14 215 -14 q 576 54 494 -14 q 683 244 658 122 l 600 244 m 288 765 l 404 765 l 404 789 l 268 968 l 189 968 l 288 765 m 443 765 l 543 968 l 464 968 l 328 789 l 328 765 l 443 765 z "},"ĝ":{"ha":736,"x_min":42,"x_max":693,"o":"m 610 203 l 610 342 l 610 490 l 610 694 l 693 694 l 693 -51 q 647 -213 693 -162 q 500 -264 601 -264 l 111 -264 l 111 -181 l 540 -181 q 578 -178 564 -181 q 599 -169 592 -176 q 608 -147 606 -161 q 610 -108 610 -132 l 610 203 m 42 347 q 64 497 42 431 q 126 611 86 564 q 220 683 165 658 q 340 708 275 708 q 483 681 426 708 q 574 603 540 653 q 623 488 608 554 q 638 347 638 422 q 624 205 638 271 q 575 90 610 139 q 483 14 540 42 q 340 -14 426 -14 q 220 11 275 -14 q 126 83 165 36 q 64 196 86 129 q 42 347 42 263 m 125 347 q 185 138 125 207 q 368 69 246 69 q 550 138 490 69 q 610 347 610 207 q 549 556 610 486 q 368 625 489 625 q 185 556 246 625 q 125 347 125 488 m 338 968 l 454 968 l 454 944 l 318 765 l 239 765 l 338 968 m 493 968 l 593 765 l 514 765 l 378 944 l 378 968 l 493 968 z "},"ğ":{"ha":736,"x_min":42,"x_max":693,"o":"m 610 203 l 610 342 l 610 490 l 610 694 l 693 694 l 693 -51 q 647 -213 693 -162 q 500 -264 601 -264 l 111 -264 l 111 -181 l 540 -181 q 578 -178 564 -181 q 599 -169 592 -176 q 608 -147 606 -161 q 610 -108 610 -132 l 610 203 m 42 347 q 64 497 42 431 q 126 611 86 564 q 220 683 165 658 q 340 708 275 708 q 483 681 426 708 q 574 603 540 653 q 623 488 608 554 q 638 347 638 422 q 624 205 638 271 q 575 90 610 139 q 483 14 540 42 q 340 -14 426 -14 q 220 11 275 -14 q 126 83 165 36 q 64 196 86 129 q 42 347 42 263 m 125 347 q 185 138 125 207 q 368 69 246 69 q 550 138 490 69 q 610 347 610 207 q 549 556 610 486 q 368 625 489 625 q 185 556 246 625 q 125 347 125 488 m 151 944 l 235 944 q 276 866 235 892 q 379 840 318 840 q 483 867 440 840 q 526 944 526 893 l 608 944 q 548 816 608 868 q 379 764 488 764 q 212 816 272 764 q 151 944 151 868 z "},"ġ":{"ha":736,"x_min":42,"x_max":693,"o":"m 610 203 l 610 342 l 610 490 l 610 694 l 693 694 l 693 -51 q 647 -213 693 -162 q 500 -264 601 -264 l 111 -264 l 111 -181 l 540 -181 q 578 -178 564 -181 q 599 -169 592 -176 q 608 -147 606 -161 q 610 -108 610 -132 l 610 203 m 42 347 q 64 497 42 431 q 126 611 86 564 q 220 683 165 658 q 340 708 275 708 q 483 681 426 708 q 574 603 540 653 q 623 488 608 554 q 638 347 638 422 q 624 205 638 271 q 575 90 610 139 q 483 14 540 42 q 340 -14 426 -14 q 220 11 275 -14 q 126 83 165 36 q 64 196 86 129 q 42 347 42 263 m 125 347 q 185 138 125 207 q 368 69 246 69 q 550 138 490 69 q 610 347 610 207 q 549 556 610 486 q 368 625 489 625 q 185 556 246 625 q 125 347 125 488 m 326 810 l 451 810 l 451 944 l 326 944 l 326 810 z "},"ģ":{"ha":736,"x_min":42,"x_max":693,"o":"m 610 203 l 610 342 l 610 490 l 610 694 l 693 694 l 693 -51 q 647 -213 693 -162 q 500 -264 601 -264 l 111 -264 l 111 -181 l 540 -181 q 578 -178 564 -181 q 599 -169 592 -176 q 608 -147 606 -161 q 610 -108 610 -132 l 610 203 m 42 347 q 64 497 42 431 q 126 611 86 564 q 220 683 165 658 q 340 708 275 708 q 483 681 426 708 q 574 603 540 653 q 623 488 608 554 q 638 347 638 422 q 624 205 638 271 q 575 90 610 139 q 483 14 540 42 q 340 -14 426 -14 q 220 11 275 -14 q 126 83 165 36 q 64 196 86 129 q 42 347 42 263 m 125 347 q 185 138 125 207 q 368 69 246 69 q 550 138 490 69 q 610 347 610 207 q 549 556 610 486 q 368 625 489 625 q 185 556 246 625 q 125 347 125 488 m 481 1014 l 297 1014 l 297 832 l 481 832 l 481 1014 m 297 1014 l 297 988 l 396 988 l 396 1014 l 461 1179 l 404 1179 l 297 1014 z "},"ĥ":{"ha":735,"x_min":-93,"x_max":693,"o":"m 42 0 l 125 0 l 125 1014 l 42 1014 l 42 0 m 106 414 l 125 290 q 145 453 125 388 q 199 558 165 518 q 277 615 233 599 q 369 632 321 632 q 491 608 444 632 q 565 544 538 585 q 601 448 592 503 q 610 332 610 393 l 610 0 l 693 0 l 693 353 q 675 496 693 431 q 620 608 657 561 q 528 682 583 656 q 397 708 472 708 q 190 633 263 708 q 106 414 117 557 m 6 1258 l 122 1258 l 122 1235 l -14 1056 l -93 1056 l 6 1258 m 161 1258 l 261 1056 l 182 1056 l 46 1235 l 46 1258 l 161 1258 z "},"į":{"ha":739,"x_min":43,"x_max":696,"o":"m 43 0 l 696 0 l 696 83 l 43 83 l 43 0 m 411 50 l 411 481 q 365 644 411 593 q 217 694 318 694 l 43 694 l 43 611 l 258 611 q 295 609 282 611 q 316 599 308 607 q 326 577 324 592 q 328 538 328 563 l 328 50 l 411 50 m 307 768 l 432 768 l 432 903 l 307 903 l 307 768 m 600 0 q 476 -76 517 -33 q 435 -164 435 -118 q 465 -240 435 -215 q 558 -265 496 -265 l 696 -265 l 696 -168 l 597 -168 q 551 -157 567 -169 q 535 -118 535 -144 q 572 -62 535 -90 q 696 0 610 -33 l 600 0 z "},"ĵ":{"ha":482,"x_min":43,"x_max":579,"o":"m 440 693 l 440 -50 q 394 -213 440 -162 q 246 -264 347 -264 l 43 -264 l 43 -181 l 288 -181 q 324 -178 311 -181 q 345 -169 338 -176 q 355 -147 353 -161 q 357 -107 357 -132 l 357 693 l 440 693 m 43 610 l 43 693 l 396 693 l 396 610 l 43 610 m 325 968 l 440 968 l 440 944 l 304 765 l 225 765 l 325 968 m 364 968 l 481 968 l 579 765 l 500 765 l 364 944 l 364 968 z "},"Ĺ":{"ha":728,"x_min":42,"x_max":644,"o":"m 42 0 l 125 0 l 125 944 l 42 944 l 42 0 m 106 0 l 644 0 l 644 83 l 106 83 l 106 0 m 146 1217 l 261 1217 l 261 1193 l 125 1014 l 46 1014 l 146 1217 z "},"Ľ":{"ha":728,"x_min":42,"x_max":644,"o":"m 42 0 l 125 0 l 125 944 l 42 944 l 42 0 m 106 0 l 644 0 l 644 83 l 106 83 l 106 0 m 272 1014 l 456 1014 l 456 1197 l 272 1197 l 272 1014 m 456 1014 l 456 1040 l 357 1040 l 357 1014 l 292 850 l 349 850 l 456 1014 z "},"Ł":{"ha":728,"x_min":-172,"x_max":644,"o":"m 42 0 l 125 0 l 125 944 l 42 944 l 42 0 m 106 0 l 644 0 l 644 83 l 106 83 l 106 0 m 196 126 l 797 -249 l 841 -179 l 240 197 l 196 126 z "},"Ń":{"ha":903,"x_min":42,"x_max":861,"o":"m 42 0 l 125 0 l 125 944 l 42 944 l 42 0 m 778 0 l 861 0 l 861 944 l 778 944 l 778 0 m 861 0 l 861 29 l 125 944 l 42 944 l 42 915 l 778 0 l 861 0 m 479 1217 l 594 1217 l 594 1193 l 458 1014 l 379 1014 l 479 1217 z "},"Ň":{"ha":903,"x_min":42,"x_max":861,"o":"m 42 0 l 125 0 l 125 944 l 42 944 l 42 0 m 778 0 l 861 0 l 861 944 l 778 944 l 778 0 m 861 0 l 861 29 l 125 944 l 42 944 l 42 915 l 778 0 l 861 0 m 374 1014 l 490 1014 l 490 1038 l 354 1217 l 275 1217 l 374 1014 m 529 1014 l 629 1217 l 550 1217 l 414 1038 l 414 1014 l 529 1014 z "},"Ŋ":{"ha":903,"x_min":42,"x_max":861,"o":"m 42 0 l 125 0 l 125 944 l 42 944 l 42 0 m 778 0 l 861 0 l 861 944 l 778 944 l 778 0 m 861 0 l 861 29 l 125 944 l 42 944 l 42 915 l 778 0 l 861 0 m 778 693 l 778 -107 q 776 -147 778 -132 q 766 -169 774 -161 q 745 -178 758 -176 q 708 -181 732 -181 l 464 -181 l 464 -264 l 667 -264 q 815 -213 768 -264 q 861 -50 861 -162 l 861 693 l 778 693 z "},"Ō":{"ha":793,"x_min":43,"x_max":751,"o":"m 43 535 l 43 410 q 66 235 43 313 q 133 101 89 157 q 244 16 178 46 q 397 -14 311 -14 q 549 16 483 -14 q 660 101 615 46 q 728 235 706 157 q 751 410 751 314 l 751 535 q 728 710 751 632 q 660 844 706 789 q 549 928 615 899 q 397 958 483 958 q 244 928 311 958 q 133 844 178 899 q 66 710 89 789 q 43 535 43 632 m 125 535 q 140 672 125 610 q 189 780 156 735 q 274 850 222 825 q 397 875 325 875 q 521 850 469 875 q 605 780 572 825 q 653 672 638 735 q 668 535 668 610 l 668 410 q 653 272 668 335 q 605 165 638 210 q 521 94 572 119 q 397 69 469 69 q 274 94 325 69 q 189 165 222 119 q 140 272 156 210 q 125 410 125 335 l 125 535 m 168 1014 l 626 1014 l 626 1097 l 168 1097 l 168 1014 z "},"Ŏ":{"ha":793,"x_min":43,"x_max":751,"o":"m 43 535 l 43 410 q 66 235 43 313 q 133 101 89 157 q 244 16 178 46 q 397 -14 311 -14 q 549 16 483 -14 q 660 101 615 46 q 728 235 706 157 q 751 410 751 314 l 751 535 q 728 710 751 632 q 660 844 706 789 q 549 928 615 899 q 397 958 483 958 q 244 928 311 958 q 133 844 178 899 q 66 710 89 789 q 43 535 43 632 m 125 535 q 140 672 125 610 q 189 780 156 735 q 274 850 222 825 q 397 875 325 875 q 521 850 469 875 q 605 780 572 825 q 653 672 638 735 q 668 535 668 610 l 668 410 q 653 272 668 335 q 605 165 638 210 q 521 94 572 119 q 397 69 469 69 q 274 94 325 69 q 189 165 222 119 q 140 272 156 210 q 125 410 125 335 l 125 535 m 169 1181 l 253 1181 q 294 1102 253 1128 q 397 1076 336 1076 q 501 1103 458 1076 q 544 1181 544 1129 l 626 1181 q 566 1052 626 1104 q 397 1000 506 1000 q 230 1052 290 1000 q 169 1181 169 1104 z "},"Ő":{"ha":793,"x_min":43,"x_max":751,"o":"m 43 535 l 43 410 q 66 235 43 313 q 133 101 89 157 q 244 16 178 46 q 397 -14 311 -14 q 549 16 483 -14 q 660 101 615 46 q 728 235 706 157 q 751 410 751 314 l 751 535 q 728 710 751 632 q 660 844 706 789 q 549 928 615 899 q 397 958 483 958 q 244 928 311 958 q 133 844 178 899 q 66 710 89 789 q 43 535 43 632 m 125 535 q 140 672 125 610 q 189 780 156 735 q 274 850 222 825 q 397 875 325 875 q 521 850 469 875 q 605 780 572 825 q 653 672 638 735 q 668 535 668 610 l 668 410 q 653 272 668 335 q 605 165 638 210 q 521 94 572 119 q 397 69 469 69 q 274 94 325 69 q 189 165 222 119 q 140 272 156 210 q 125 410 125 335 l 125 535 m 311 1217 l 428 1217 l 428 1193 l 292 1014 l 213 1014 l 311 1217 m 651 1217 l 651 1193 l 515 1014 l 436 1014 l 536 1217 l 651 1217 z "},"Œ":{"ha":1285,"x_min":42,"x_max":1243,"o":"m 42 535 l 42 410 q 65 235 42 313 q 133 101 88 157 q 244 16 178 46 q 397 -14 310 -14 q 545 16 483 -14 q 647 101 607 46 q 704 235 686 157 q 722 410 722 314 l 722 535 q 704 710 722 632 q 647 844 686 789 q 545 928 607 899 q 397 958 483 958 q 244 928 310 958 q 133 844 178 899 q 65 710 88 789 q 42 535 42 632 m 125 535 q 140 672 125 610 q 188 780 156 735 q 272 850 221 825 q 397 875 324 875 q 521 850 469 875 q 605 780 572 825 q 653 672 638 735 q 668 535 668 610 l 668 410 q 653 272 668 335 q 605 165 638 210 q 521 94 572 119 q 397 69 469 69 q 272 94 324 69 q 188 165 221 119 q 140 272 156 210 q 125 410 125 335 l 125 535 m 668 0 l 751 0 l 751 944 l 668 944 l 668 0 m 732 861 l 1243 861 l 1243 944 l 732 944 l 732 861 m 732 0 l 1243 0 l 1243 83 l 732 83 l 732 0 m 732 431 l 1188 431 l 1188 514 l 732 514 l 732 431 z "},"Ŕ":{"ha":864,"x_min":42,"x_max":764,"o":"m 764 0 l 657 0 l 338 397 l 444 397 l 764 0 m 42 944 l 125 944 l 125 0 l 42 0 l 42 944 m 106 458 l 438 458 q 606 508 544 458 q 667 656 667 557 q 606 806 667 751 q 438 861 544 861 l 106 861 l 106 944 l 458 944 q 572 922 519 944 q 665 860 625 900 q 727 769 704 821 q 750 656 750 717 q 728 544 750 596 q 666 456 706 493 q 574 397 626 418 q 458 375 521 375 l 106 375 l 106 458 m 424 1217 l 539 1217 l 539 1193 l 403 1014 l 324 1014 l 424 1217 z "},"Ř":{"ha":864,"x_min":42,"x_max":764,"o":"m 764 0 l 657 0 l 338 397 l 444 397 l 764 0 m 42 944 l 125 944 l 125 0 l 42 0 l 42 944 m 106 458 l 438 458 q 606 508 544 458 q 667 656 667 557 q 606 806 667 751 q 438 861 544 861 l 106 861 l 106 944 l 458 944 q 572 922 519 944 q 665 860 625 900 q 727 769 704 821 q 750 656 750 717 q 728 544 750 596 q 666 456 706 493 q 574 397 626 418 q 458 375 521 375 l 106 375 l 106 458 m 318 1014 l 435 1014 l 435 1038 l 299 1217 l 219 1217 l 318 1014 m 474 1014 l 574 1217 l 494 1217 l 358 1038 l 358 1014 l 474 1014 z "},"Ś":{"ha":763,"x_min":42,"x_max":750,"o":"m 729 613 q 706 743 729 682 q 638 849 682 804 q 531 919 594 893 q 388 944 467 944 q 254 929 315 944 q 149 883 193 914 q 81 806 106 853 q 56 696 56 760 q 101 557 56 604 q 214 488 146 510 q 361 457 282 465 q 508 434 440 449 q 622 389 576 419 q 667 290 667 358 q 601 135 667 186 q 401 83 535 83 q 200 154 275 83 q 125 346 125 225 l 42 346 q 66 213 42 276 q 135 103 90 150 q 244 28 179 56 q 388 0 308 0 q 533 17 467 0 q 648 69 600 35 q 723 155 696 103 q 750 276 750 207 q 705 424 750 374 q 592 499 660 475 q 444 530 524 522 q 297 550 365 538 q 184 590 229 563 q 139 682 139 618 q 199 817 139 774 q 385 861 258 861 q 493 844 444 861 q 576 794 542 826 q 628 715 610 761 q 646 613 646 669 l 729 613 m 404 1217 l 519 1217 l 519 1193 l 383 1014 l 304 1014 l 404 1217 z "},"Ŝ":{"ha":763,"x_min":42,"x_max":750,"o":"m 729 613 q 706 743 729 682 q 638 849 682 804 q 531 919 594 893 q 388 944 467 944 q 254 929 315 944 q 149 883 193 914 q 81 806 106 853 q 56 696 56 760 q 101 557 56 604 q 214 488 146 510 q 361 457 282 465 q 508 434 440 449 q 622 389 576 419 q 667 290 667 358 q 601 135 667 186 q 401 83 535 83 q 200 154 275 83 q 125 346 125 225 l 42 346 q 66 213 42 276 q 135 103 90 150 q 244 28 179 56 q 388 0 308 0 q 533 17 467 0 q 648 69 600 35 q 723 155 696 103 q 750 276 750 207 q 705 424 750 374 q 592 499 660 475 q 444 530 524 522 q 297 550 365 538 q 184 590 229 563 q 139 682 139 618 q 199 817 139 774 q 385 861 258 861 q 493 844 444 861 q 576 794 542 826 q 628 715 610 761 q 646 613 646 669 l 729 613 m 303 1217 l 419 1217 l 419 1193 l 283 1014 l 204 1014 l 303 1217 m 458 1217 l 558 1014 l 479 1014 l 343 1193 l 343 1217 l 458 1217 z "},"Ş":{"ha":763,"x_min":42,"x_max":750,"o":"m 729 613 q 706 743 729 682 q 638 849 682 804 q 531 919 594 893 q 388 944 467 944 q 254 929 315 944 q 149 883 193 914 q 81 806 106 853 q 56 696 56 760 q 101 557 56 604 q 214 488 146 510 q 361 457 282 465 q 508 434 440 449 q 622 389 576 419 q 667 290 667 358 q 601 135 667 186 q 401 83 535 83 q 200 154 275 83 q 125 346 125 225 l 42 346 q 66 213 42 276 q 135 103 90 150 q 244 28 179 56 q 388 0 308 0 q 533 17 467 0 q 648 69 600 35 q 723 155 696 103 q 750 276 750 207 q 705 424 750 374 q 592 499 660 475 q 444 530 524 522 q 297 550 365 538 q 184 590 229 563 q 139 682 139 618 q 199 817 139 774 q 385 861 258 861 q 493 844 444 861 q 576 794 542 826 q 628 715 610 761 q 646 613 646 669 l 729 613 m 285 -114 l 339 -137 q 350 -119 343 -128 q 365 -107 356 -112 q 386 -101 374 -101 q 415 -110 404 -101 q 426 -136 426 -119 q 414 -169 426 -158 q 372 -181 401 -179 l 274 -181 l 274 -264 l 376 -264 q 474 -240 443 -264 q 504 -161 504 -215 q 491 -114 504 -135 q 458 -81 478 -93 q 412 -67 438 -69 q 361 -78 386 -65 l 439 3 l 349 4 l 285 -114 z "},"Š":{"ha":763,"x_min":42,"x_max":750,"o":"m 729 613 q 706 743 729 682 q 638 849 682 804 q 531 919 594 893 q 388 944 467 944 q 254 929 315 944 q 149 883 193 914 q 81 806 106 853 q 56 696 56 760 q 101 557 56 604 q 214 488 146 510 q 361 457 282 465 q 508 434 440 449 q 622 389 576 419 q 667 290 667 358 q 601 135 667 186 q 401 83 535 83 q 200 154 275 83 q 125 346 125 225 l 42 346 q 66 213 42 276 q 135 103 90 150 q 244 28 179 56 q 388 0 308 0 q 533 17 467 0 q 648 69 600 35 q 723 155 696 103 q 750 276 750 207 q 705 424 750 374 q 592 499 660 475 q 444 530 524 522 q 297 550 365 538 q 184 590 229 563 q 139 682 139 618 q 199 817 139 774 q 385 861 258 861 q 493 844 444 861 q 576 794 542 826 q 628 715 610 761 q 646 613 646 669 l 729 613 m 303 1014 l 419 1014 l 419 1038 l 283 1217 l 204 1217 l 303 1014 m 458 1014 l 558 1217 l 479 1217 l 343 1038 l 343 1014 l 458 1014 z "},"Ţ":{"ha":792,"x_min":42,"x_max":750,"o":"m 42 861 l 750 861 l 750 944 l 42 944 l 42 861 m 354 0 l 438 0 l 438 894 l 354 894 l 354 0 m 285 -114 l 339 -137 q 350 -119 343 -128 q 365 -107 356 -112 q 386 -101 374 -101 q 415 -110 404 -101 q 426 -136 426 -119 q 414 -169 426 -158 q 372 -181 401 -179 l 274 -181 l 274 -264 l 376 -264 q 474 -240 443 -264 q 504 -161 504 -215 q 491 -114 504 -135 q 458 -81 478 -93 q 412 -67 438 -69 q 361 -78 386 -65 l 438 1 l 354 1 l 285 -114 z "},"Ť":{"ha":792,"x_min":42,"x_max":750,"o":"m 42 861 l 750 861 l 750 944 l 42 944 l 42 861 m 354 0 l 438 0 l 438 894 l 354 894 l 354 0 m 318 1014 l 435 1014 l 435 1038 l 299 1217 l 219 1217 l 318 1014 m 474 1014 l 574 1217 l 494 1217 l 358 1038 l 358 1014 l 474 1014 z "},"Ŧ":{"ha":792,"x_min":42,"x_max":750,"o":"m 42 861 l 750 861 l 750 944 l 42 944 l 42 861 m 354 0 l 438 0 l 438 894 l 354 894 l 354 0 m 167 1014 l 625 1014 l 625 1097 l 167 1097 l 167 1014 z "},"Ũ":{"ha":792,"x_min":42,"x_max":750,"o":"m 42 944 l 125 944 l 125 363 q 144 246 125 300 q 197 153 163 192 q 281 92 232 114 q 389 69 329 69 q 499 91 449 69 q 588 151 550 113 q 646 244 625 190 q 667 363 667 299 l 667 944 l 750 944 l 750 363 q 723 213 750 282 q 648 94 696 144 q 534 15 600 43 q 390 -14 468 -14 q 249 15 313 -14 q 139 94 185 43 q 67 213 93 144 q 42 363 42 282 l 42 944 m 136 1014 q 171 1125 136 1081 q 275 1169 206 1169 q 352 1156 322 1169 q 406 1124 382 1142 q 454 1093 431 1107 q 511 1079 478 1079 q 558 1099 542 1079 q 574 1156 574 1118 l 657 1156 q 622 1044 657 1089 q 518 1000 588 1000 q 441 1014 471 1000 q 387 1045 411 1028 q 339 1076 363 1063 q 282 1090 315 1090 q 235 1071 251 1090 q 219 1014 219 1051 l 136 1014 z "},"Ū":{"ha":792,"x_min":42,"x_max":750,"o":"m 42 944 l 125 944 l 125 363 q 144 246 125 300 q 197 153 163 192 q 281 92 232 114 q 389 69 329 69 q 499 91 449 69 q 588 151 550 113 q 646 244 625 190 q 667 363 667 299 l 667 944 l 750 944 l 750 363 q 723 213 750 282 q 648 94 696 144 q 534 15 600 43 q 390 -14 468 -14 q 249 15 313 -14 q 139 94 185 43 q 67 213 93 144 q 42 363 42 282 l 42 944 m 167 1014 l 625 1014 l 625 1097 l 167 1097 l 167 1014 z "},"Ŭ":{"ha":792,"x_min":42,"x_max":750,"o":"m 42 944 l 125 944 l 125 363 q 144 246 125 300 q 197 153 163 192 q 281 92 232 114 q 389 69 329 69 q 499 91 449 69 q 588 151 550 113 q 646 244 625 190 q 667 363 667 299 l 667 944 l 750 944 l 750 363 q 723 213 750 282 q 648 94 696 144 q 534 15 600 43 q 390 -14 468 -14 q 249 15 313 -14 q 139 94 185 43 q 67 213 93 144 q 42 363 42 282 l 42 944 m 167 1181 l 250 1181 q 292 1102 250 1128 q 394 1076 333 1076 q 499 1103 456 1076 q 542 1181 542 1129 l 624 1181 q 563 1052 624 1104 q 394 1000 503 1000 q 227 1052 288 1000 q 167 1181 167 1104 z "},"Ů":{"ha":792,"x_min":42,"x_max":750,"o":"m 42 944 l 125 944 l 125 363 q 144 246 125 300 q 197 153 163 192 q 281 92 232 114 q 389 69 329 69 q 499 91 449 69 q 588 151 550 113 q 646 244 625 190 q 667 363 667 299 l 667 944 l 750 944 l 750 363 q 723 213 750 282 q 648 94 696 144 q 534 15 600 43 q 390 -14 468 -14 q 249 15 313 -14 q 139 94 185 43 q 67 213 93 144 q 42 363 42 282 l 42 944 m 258 1138 q 295 1238 258 1200 q 396 1275 332 1275 q 495 1238 457 1275 q 533 1138 533 1200 q 495 1038 533 1075 q 396 1000 457 1000 q 295 1038 332 1000 q 258 1138 258 1075 m 315 1138 q 338 1080 315 1101 q 396 1058 360 1058 q 453 1080 431 1058 q 475 1138 475 1101 q 453 1195 475 1174 q 396 1217 431 1217 q 338 1195 360 1217 q 315 1138 315 1174 z "},"Ű":{"ha":792,"x_min":42,"x_max":750,"o":"m 42 944 l 125 944 l 125 363 q 144 246 125 300 q 197 153 163 192 q 281 92 232 114 q 389 69 329 69 q 499 91 449 69 q 588 151 550 113 q 646 244 625 190 q 667 363 667 299 l 667 944 l 750 944 l 750 363 q 723 213 750 282 q 648 94 696 144 q 534 15 600 43 q 390 -14 468 -14 q 249 15 313 -14 q 139 94 185 43 q 67 213 93 144 q 42 363 42 282 l 42 944 m 315 1217 l 432 1217 l 432 1193 l 296 1014 l 217 1014 l 315 1217 m 656 1217 l 656 1193 l 519 1014 l 440 1014 l 540 1217 l 656 1217 z "},"Ų":{"ha":792,"x_min":42,"x_max":750,"o":"m 42 944 l 125 944 l 125 363 q 144 246 125 300 q 197 153 163 192 q 281 92 232 114 q 389 69 329 69 q 499 91 449 69 q 588 151 550 113 q 646 244 625 190 q 667 363 667 299 l 667 944 l 750 944 l 750 363 q 723 213 750 282 q 648 94 696 144 q 534 15 600 43 q 390 -14 468 -14 q 249 15 313 -14 q 139 94 185 43 q 67 213 93 144 q 42 363 42 282 l 42 944 m 436 4 q 467 3 447 4 q 492 1 486 1 q 368 -60 406 -32 q 331 -117 331 -89 q 334 -139 331 -129 q 345 -155 338 -149 q 365 -165 353 -161 q 392 -167 376 -168 l 492 -167 l 492 -264 q 470 -264 492 -264 q 422 -264 449 -264 q 374 -264 396 -264 q 353 -264 353 -264 q 260 -239 290 -264 q 229 -162 229 -214 q 246 -116 229 -139 q 290 -71 263 -93 q 356 -29 318 -49 q 436 4 393 -10 z "},"Ŵ":{"ha":1079,"x_min":43,"x_max":1036,"o":"m 43 944 l 128 944 l 326 0 l 242 0 l 43 944 m 328 0 l 242 0 l 496 944 l 582 944 l 328 0 m 497 944 l 583 944 l 838 0 l 751 0 l 497 944 m 951 944 l 1036 944 l 838 0 l 753 0 l 951 944 m 461 1217 l 578 1217 l 578 1193 l 442 1014 l 363 1014 l 461 1217 m 617 1217 l 717 1014 l 638 1014 l 501 1193 l 501 1217 l 617 1217 z "},"Ŷ":{"ha":792,"x_min":42,"x_max":750,"o":"m 354 0 l 438 0 l 438 389 l 354 389 l 354 0 m 354 375 l 438 375 l 126 944 l 42 944 l 354 375 m 354 375 l 438 375 l 750 944 l 665 944 l 354 375 m 318 1217 l 435 1217 l 435 1193 l 299 1014 l 219 1014 l 318 1217 m 474 1217 l 574 1014 l 494 1014 l 358 1193 l 358 1217 l 474 1217 z "},"Ÿ":{"ha":792,"x_min":42,"x_max":750,"o":"m 354 0 l 438 0 l 438 389 l 354 389 l 354 0 m 354 375 l 438 375 l 126 944 l 42 944 l 354 375 m 354 375 l 438 375 l 750 944 l 665 944 l 354 375 m 207 1014 l 332 1014 l 332 1149 l 207 1149 l 207 1014 m 458 1014 l 583 1014 l 583 1149 l 458 1149 l 458 1014 z "},"Ź":{"ha":794,"x_min":42,"x_max":750,"o":"m 42 861 l 750 861 l 750 944 l 42 944 l 42 861 m 42 0 l 750 0 l 750 83 l 42 83 l 42 0 m 42 0 l 82 0 l 750 861 l 750 944 l 708 944 l 42 83 l 42 0 m 417 1217 l 532 1217 l 532 1193 l 396 1014 l 317 1014 l 417 1217 z "},"Ż":{"ha":794,"x_min":42,"x_max":750,"o":"m 42 861 l 750 861 l 750 944 l 42 944 l 42 861 m 42 0 l 750 0 l 750 83 l 42 83 l 42 0 m 42 0 l 82 0 l 750 861 l 750 944 l 708 944 l 42 83 l 42 0 m 335 1014 l 460 1014 l 460 1149 l 335 1149 l 335 1014 z "},"Ž":{"ha":794,"x_min":42,"x_max":750,"o":"m 42 861 l 750 861 l 750 944 l 42 944 l 42 861 m 42 0 l 750 0 l 750 83 l 42 83 l 42 0 m 42 0 l 82 0 l 750 861 l 750 944 l 708 944 l 42 83 l 42 0 m 319 1014 l 436 1014 l 436 1038 l 300 1217 l 221 1217 l 319 1014 m 475 1014 l 575 1217 l 496 1217 l 360 1038 l 360 1014 l 475 1014 z "},"ď":{"ha":1003,"x_min":42,"x_max":961,"o":"m 638 347 q 623 206 638 272 q 574 91 608 140 q 483 14 540 42 q 340 -14 426 -14 q 220 11 275 -14 q 126 83 165 36 q 64 197 86 131 q 42 347 42 264 q 64 499 42 432 q 126 612 86 565 q 220 683 165 658 q 340 708 275 708 q 483 681 426 708 q 575 604 540 653 q 624 490 610 556 q 638 347 638 424 m 610 347 q 550 556 610 488 q 368 625 490 625 q 185 556 246 625 q 125 347 125 488 q 185 138 125 207 q 368 69 246 69 q 549 139 489 69 q 610 347 610 208 m 693 0 l 610 0 l 610 204 l 610 353 l 610 492 l 610 1014 l 693 1014 l 693 0 m 778 761 l 961 761 l 961 944 l 778 944 l 778 761 m 961 761 l 961 788 l 863 788 l 863 761 l 797 597 l 854 597 l 961 761 z "},"đ":{"ha":736,"x_min":42,"x_max":790,"o":"m 638 347 q 623 206 638 272 q 574 91 608 140 q 483 14 540 42 q 340 -14 426 -14 q 220 11 275 -14 q 126 83 165 36 q 64 197 86 131 q 42 347 42 264 q 64 499 42 432 q 126 612 86 565 q 220 683 165 658 q 340 708 275 708 q 483 681 426 708 q 575 604 540 653 q 624 490 610 556 q 638 347 638 424 m 610 347 q 550 556 610 488 q 368 625 490 625 q 185 556 246 625 q 125 347 125 488 q 185 138 125 207 q 368 69 246 69 q 549 139 489 69 q 610 347 610 208 m 693 0 l 610 0 l 610 204 l 610 353 l 610 492 l 610 1014 l 693 1014 l 693 0 m 332 861 l 790 861 l 790 944 l 332 944 l 332 861 z "},"ħ":{"ha":735,"x_min":-56,"x_max":693,"o":"m 42 0 l 125 0 l 125 1014 l 42 1014 l 42 0 m 106 414 l 125 290 q 145 453 125 388 q 199 558 165 518 q 277 615 233 599 q 369 632 321 632 q 491 608 444 632 q 565 544 538 585 q 601 448 592 503 q 610 332 610 393 l 610 0 l 693 0 l 693 353 q 675 496 693 431 q 620 608 657 561 q 528 682 583 656 q 397 708 472 708 q 190 633 263 708 q 106 414 117 557 m -56 861 l 403 861 l 403 944 l -56 944 l -56 861 z "},"ĺ":{"ha":768,"x_min":43,"x_max":725,"o":"m 72 0 l 725 0 l 725 83 l 72 83 l 72 0 m 440 50 l 440 800 q 394 963 440 913 q 246 1014 347 1014 l 43 1014 l 43 931 l 288 931 q 324 928 311 931 q 345 919 338 926 q 355 897 353 911 q 357 857 357 882 l 357 50 l 440 50 m 376 1014 l 492 1014 l 492 990 l 356 811 l 276 811 l 376 1014 z "},"ľ":{"ha":1035,"x_min":43,"x_max":725,"o":"m 72 0 l 725 0 l 725 83 l 72 83 l 72 0 m 440 50 l 440 800 q 394 963 440 913 q 246 1014 347 1014 l 43 1014 l 43 931 l 288 931 q 324 928 311 931 q 345 919 338 926 q 355 897 353 911 q 357 857 357 882 l 357 50 l 440 50 m 517 1014 l 700 1014 l 700 1197 l 517 1197 l 517 1014 m 700 1014 l 700 1040 l 601 1040 l 601 1014 l 536 850 l 593 850 l 700 1014 z "},"ł":{"ha":768,"x_min":43,"x_max":738,"o":"m 72 0 l 725 0 l 725 83 l 72 83 l 72 0 m 440 50 l 440 800 q 394 963 440 913 q 246 1014 347 1014 l 43 1014 l 43 931 l 288 931 q 324 928 311 931 q 345 919 338 926 q 355 897 353 911 q 357 857 357 882 l 357 50 l 440 50 m 461 184 l 1062 -191 l 1106 -120 l 505 255 l 461 184 z "},"ń":{"ha":735,"x_min":42,"x_max":694,"o":"m 107 414 l 125 290 q 145 453 125 388 q 199 558 165 518 q 277 615 233 597 q 369 632 321 632 q 485 612 439 632 q 560 553 532 592 q 600 458 589 514 q 611 332 611 401 l 611 0 l 694 0 l 694 353 q 676 496 694 431 q 620 608 657 561 q 528 682 583 656 q 397 708 472 708 q 190 633 263 708 q 107 414 117 557 m 42 0 l 125 0 l 125 694 l 42 694 l 42 0 m 390 968 l 506 968 l 506 944 l 369 765 l 290 765 l 390 968 z "},"ň":{"ha":735,"x_min":42,"x_max":694,"o":"m 107 414 l 125 290 q 145 453 125 388 q 199 558 165 518 q 277 615 233 597 q 369 632 321 632 q 485 612 439 632 q 560 553 532 592 q 600 458 589 514 q 611 332 611 401 l 611 0 l 694 0 l 694 353 q 676 496 694 431 q 620 608 657 561 q 528 682 583 656 q 397 708 472 708 q 190 633 263 708 q 107 414 117 557 m 42 0 l 125 0 l 125 694 l 42 694 l 42 0 m 303 765 l 419 765 l 419 789 l 283 968 l 204 968 l 303 765 m 458 765 l 558 968 l 479 968 l 343 789 l 343 765 l 458 765 z "},"ŋ":{"ha":858,"x_min":42,"x_max":694,"o":"m 107 414 l 125 290 q 145 453 125 388 q 199 558 165 518 q 277 615 233 597 q 369 632 321 632 q 485 612 439 632 q 560 553 532 592 q 600 458 589 514 q 611 332 611 401 l 611 0 l 694 0 l 694 353 q 676 496 694 431 q 620 608 657 561 q 528 682 583 656 q 397 708 472 708 q 190 633 263 708 q 107 414 117 557 m 42 0 l 125 0 l 125 694 l 42 694 l 42 0 m 611 235 l 611 -107 q 609 -147 611 -132 q 599 -169 607 -161 q 578 -178 592 -176 q 542 -181 565 -181 l 297 -181 l 297 -264 l 500 -264 q 648 -213 601 -264 q 694 -50 694 -162 l 694 235 l 611 235 z "},"ō":{"ha":736,"x_min":42,"x_max":693,"o":"m 693 347 q 606 612 693 515 q 367 708 519 708 q 128 612 215 708 q 42 347 42 515 q 128 82 42 178 q 367 -14 215 -14 q 606 82 519 -14 q 693 347 693 178 m 610 347 q 550 138 610 207 q 367 69 490 69 q 185 138 246 69 q 125 347 125 207 q 185 556 125 486 q 367 625 246 625 q 550 556 490 625 q 610 347 610 488 m 139 861 l 597 861 l 597 944 l 139 944 l 139 861 z "},"ŏ":{"ha":736,"x_min":42,"x_max":693,"o":"m 693 347 q 606 612 693 515 q 367 708 519 708 q 128 612 215 708 q 42 347 42 515 q 128 82 42 178 q 367 -14 215 -14 q 606 82 519 -14 q 693 347 693 178 m 610 347 q 550 138 610 207 q 367 69 490 69 q 185 138 246 69 q 125 347 125 207 q 185 556 125 486 q 367 625 246 625 q 550 556 490 625 q 610 347 610 488 m 139 944 l 222 944 q 264 866 222 892 q 367 840 306 840 q 471 867 428 840 q 514 944 514 893 l 596 944 q 535 816 596 868 q 367 764 475 764 q 199 816 260 764 q 139 944 139 868 z "},"ő":{"ha":736,"x_min":42,"x_max":693,"o":"m 693 347 q 606 612 693 515 q 367 708 519 708 q 128 612 215 708 q 42 347 42 515 q 128 82 42 178 q 367 -14 215 -14 q 606 82 519 -14 q 693 347 693 178 m 610 347 q 550 138 610 207 q 367 69 490 69 q 185 138 246 69 q 125 347 125 207 q 185 556 125 486 q 367 625 246 625 q 550 556 490 625 q 610 347 610 488 m 274 968 l 390 968 l 390 944 l 254 765 l 175 765 l 274 968 m 614 968 l 614 944 l 478 765 l 399 765 l 499 968 l 614 968 z "},"œ":{"ha":1304,"x_min":42,"x_max":1261,"o":"m 693 347 q 606 612 693 515 q 367 708 519 708 q 128 612 215 708 q 42 347 42 515 q 128 82 42 178 q 367 -14 215 -14 q 606 82 519 -14 q 693 347 693 178 m 610 347 q 550 138 610 207 q 367 69 490 69 q 185 138 246 69 q 125 347 125 207 q 185 556 125 486 q 367 625 246 625 q 550 556 490 625 q 610 347 610 488 m 672 325 l 1261 325 l 1261 347 l 1193 408 l 672 408 l 672 325 m 1168 244 q 1090 113 1149 156 q 935 69 1032 69 q 753 138 814 69 q 693 347 693 207 q 753 556 693 486 q 935 625 814 625 q 1118 556 1058 625 q 1178 347 1178 488 l 1261 347 q 1174 612 1261 515 q 935 708 1088 708 q 697 612 783 708 q 610 347 610 515 q 697 82 610 178 q 935 -14 783 -14 q 1144 54 1063 -14 q 1251 244 1226 122 l 1168 244 z "},"ŕ":{"ha":739,"x_min":43,"x_max":697,"o":"m 697 0 l 43 0 l 43 83 l 697 83 l 697 0 m 263 50 l 263 694 q 299 694 283 694 q 324 694 313 694 q 335 694 335 694 l 346 492 l 346 50 l 263 50 m 310 611 l 43 611 l 43 694 l 310 694 l 310 611 m 569 694 l 697 694 l 697 611 l 574 611 q 446 601 492 611 q 378 560 400 592 q 351 472 356 529 q 346 319 346 414 l 329 408 q 339 540 329 486 q 376 629 349 594 q 449 679 403 664 q 569 694 496 694 m 389 968 l 504 968 l 504 944 l 368 765 l 289 765 l 389 968 z "},"ř":{"ha":739,"x_min":43,"x_max":697,"o":"m 697 0 l 43 0 l 43 83 l 697 83 l 697 0 m 263 50 l 263 694 q 299 694 283 694 q 324 694 313 694 q 335 694 335 694 l 346 492 l 346 50 l 263 50 m 310 611 l 43 611 l 43 694 l 310 694 l 310 611 m 569 694 l 697 694 l 697 611 l 574 611 q 446 601 492 611 q 378 560 400 592 q 351 472 356 529 q 346 319 346 414 l 329 408 q 339 540 329 486 q 376 629 349 594 q 449 679 403 664 q 569 694 496 694 m 290 968 l 407 968 l 407 944 l 271 765 l 192 765 l 290 968 m 446 968 l 546 765 l 467 765 l 331 944 l 331 968 l 446 968 z "},"ś":{"ha":792,"x_min":42,"x_max":750,"o":"m 639 465 l 722 464 q 697 556 722 514 q 628 628 672 597 q 523 677 583 660 q 392 694 463 694 q 251 682 311 694 q 150 644 190 669 q 90 580 110 618 q 69 490 69 542 q 114 384 69 421 q 224 329 158 347 q 368 305 290 311 q 512 290 446 299 q 622 260 578 281 q 667 194 667 239 q 597 105 667 126 q 392 83 526 83 q 189 123 253 83 q 125 250 125 163 l 42 250 q 64 141 42 188 q 130 63 86 94 q 240 16 174 32 q 392 0 306 0 q 547 11 479 0 q 659 47 614 22 q 727 110 704 71 q 750 208 750 150 q 706 308 750 274 q 595 358 661 342 q 451 380 529 374 q 308 397 374 386 q 197 431 242 407 q 153 504 153 454 q 167 550 153 531 q 212 583 182 569 q 286 604 242 597 q 392 611 331 611 q 491 600 446 611 q 569 570 536 589 q 621 524 603 551 q 639 465 639 497 m 418 968 l 533 968 l 533 944 l 397 765 l 318 765 l 418 968 z "},"ŝ":{"ha":792,"x_min":42,"x_max":750,"o":"m 639 465 l 722 464 q 697 556 722 514 q 628 628 672 597 q 523 677 583 660 q 392 694 463 694 q 251 682 311 694 q 150 644 190 669 q 90 580 110 618 q 69 490 69 542 q 114 384 69 421 q 224 329 158 347 q 368 305 290 311 q 512 290 446 299 q 622 260 578 281 q 667 194 667 239 q 597 105 667 126 q 392 83 526 83 q 189 123 253 83 q 125 250 125 163 l 42 250 q 64 141 42 188 q 130 63 86 94 q 240 16 174 32 q 392 0 306 0 q 547 11 479 0 q 659 47 614 22 q 727 110 704 71 q 750 208 750 150 q 706 308 750 274 q 595 358 661 342 q 451 380 529 374 q 308 397 374 386 q 197 431 242 407 q 153 504 153 454 q 167 550 153 531 q 212 583 182 569 q 286 604 242 597 q 392 611 331 611 q 491 600 446 611 q 569 570 536 589 q 621 524 603 551 q 639 465 639 497 m 318 968 l 435 968 l 435 944 l 299 765 l 219 765 l 318 968 m 474 968 l 574 765 l 494 765 l 358 944 l 358 968 l 474 968 z "},"ş":{"ha":792,"x_min":42,"x_max":750,"o":"m 639 465 l 722 464 q 697 556 722 514 q 628 628 672 597 q 523 677 583 660 q 392 694 463 694 q 251 682 311 694 q 150 644 190 669 q 90 580 110 618 q 69 490 69 542 q 114 384 69 421 q 224 329 158 347 q 368 305 290 311 q 512 290 446 299 q 622 260 578 281 q 667 194 667 239 q 597 105 667 126 q 392 83 526 83 q 189 123 253 83 q 125 250 125 163 l 42 250 q 64 141 42 188 q 130 63 86 94 q 240 16 174 32 q 392 0 306 0 q 547 11 479 0 q 659 47 614 22 q 727 110 704 71 q 750 208 750 150 q 706 308 750 274 q 595 358 661 342 q 451 380 529 374 q 308 397 374 386 q 197 431 242 407 q 153 504 153 454 q 167 550 153 531 q 212 583 182 569 q 286 604 242 597 q 392 611 331 611 q 491 600 446 611 q 569 570 536 589 q 621 524 603 551 q 639 465 639 497 m 354 1 l 444 1 l 368 -78 q 419 -67 393 -65 q 465 -81 444 -69 q 498 -114 485 -93 q 511 -161 511 -135 q 481 -240 511 -215 q 383 -264 450 -264 l 281 -264 l 281 -181 l 379 -181 q 421 -169 408 -179 q 433 -136 433 -158 q 422 -110 433 -119 q 393 -101 411 -101 q 372 -107 381 -101 q 357 -119 363 -112 q 346 -137 350 -128 l 292 -114 l 354 1 z "},"š":{"ha":792,"x_min":42,"x_max":750,"o":"m 639 465 l 722 464 q 697 556 722 514 q 628 628 672 597 q 523 677 583 660 q 392 694 463 694 q 251 682 311 694 q 150 644 190 669 q 90 580 110 618 q 69 490 69 542 q 114 384 69 421 q 224 329 158 347 q 368 305 290 311 q 512 290 446 299 q 622 260 578 281 q 667 194 667 239 q 597 105 667 126 q 392 83 526 83 q 189 123 253 83 q 125 250 125 163 l 42 250 q 64 141 42 188 q 130 63 86 94 q 240 16 174 32 q 392 0 306 0 q 547 11 479 0 q 659 47 614 22 q 727 110 704 71 q 750 208 750 150 q 706 308 750 274 q 595 358 661 342 q 451 380 529 374 q 308 397 374 386 q 197 431 242 407 q 153 504 153 454 q 167 550 153 531 q 212 583 182 569 q 286 604 242 597 q 392 611 331 611 q 491 600 446 611 q 569 570 536 589 q 621 524 603 551 q 639 465 639 497 m 317 765 l 433 765 l 433 789 l 297 968 l 218 968 l 317 765 m 472 765 l 572 968 l 493 968 l 357 789 l 357 765 l 472 765 z "},"ţ":{"ha":738,"x_min":42,"x_max":696,"o":"m 267 903 l 267 214 q 313 51 267 101 q 461 0 360 0 l 696 0 l 696 83 l 419 83 q 383 85 397 83 q 362 95 369 88 q 352 117 354 103 q 350 157 350 132 l 350 903 l 267 903 m 696 694 l 42 694 l 42 611 l 696 611 l 696 694 z "},"ť":{"ha":1004,"x_min":42,"x_max":963,"o":"m 267 903 l 267 214 q 313 51 267 101 q 461 0 360 0 l 696 0 l 696 83 l 419 83 q 383 85 397 83 q 362 95 369 88 q 352 117 354 103 q 350 157 350 132 l 350 903 l 267 903 m 696 694 l 42 694 l 42 611 l 696 611 l 696 694 m 779 761 l 963 761 l 963 944 l 779 944 l 779 761 m 963 761 l 963 788 l 864 788 l 864 761 l 799 597 l 856 597 l 963 761 z "},"ŧ":{"ha":738,"x_min":42,"x_max":696,"o":"m 267 903 l 267 214 q 313 51 267 101 q 461 0 360 0 l 696 0 l 696 83 l 419 83 q 383 85 397 83 q 362 95 369 88 q 352 117 354 103 q 350 157 350 132 l 350 903 l 267 903 m 696 694 l 42 694 l 42 611 l 696 611 l 696 694 m 140 357 l 599 357 l 599 440 l 140 440 l 140 357 z "},"ũ":{"ha":736,"x_min":42,"x_max":694,"o":"m 694 694 l 597 694 l 597 0 l 694 0 l 694 694 m 617 281 l 597 404 q 579 244 597 307 q 530 143 561 181 q 457 91 499 106 q 367 76 415 76 q 253 94 297 76 q 183 149 208 113 q 148 239 157 185 q 139 363 139 293 l 139 694 l 42 694 l 42 342 q 60 199 42 264 q 116 86 79 133 q 208 13 153 39 q 339 -14 264 -14 q 540 62 474 -14 q 617 281 606 138 m 108 803 q 143 914 108 869 q 247 958 178 958 q 324 944 294 958 q 378 913 354 931 q 426 882 403 896 q 483 868 450 868 q 530 888 514 868 q 546 944 546 907 l 629 944 q 594 833 629 878 q 490 789 560 789 q 413 803 443 789 q 359 834 383 817 q 311 865 335 851 q 254 879 288 879 q 208 860 224 879 q 192 803 192 840 l 108 803 z "},"ū":{"ha":736,"x_min":42,"x_max":694,"o":"m 694 694 l 597 694 l 597 0 l 694 0 l 694 694 m 617 281 l 597 404 q 579 244 597 307 q 530 143 561 181 q 457 91 499 106 q 367 76 415 76 q 253 94 297 76 q 183 149 208 113 q 148 239 157 185 q 139 363 139 293 l 139 694 l 42 694 l 42 342 q 60 199 42 264 q 116 86 79 133 q 208 13 153 39 q 339 -14 264 -14 q 540 62 474 -14 q 617 281 606 138 m 139 861 l 597 861 l 597 944 l 139 944 l 139 861 z "},"ŭ":{"ha":736,"x_min":42,"x_max":694,"o":"m 694 694 l 597 694 l 597 0 l 694 0 l 694 694 m 617 281 l 597 404 q 579 244 597 307 q 530 143 561 181 q 457 91 499 106 q 367 76 415 76 q 253 94 297 76 q 183 149 208 113 q 148 239 157 185 q 139 363 139 293 l 139 694 l 42 694 l 42 342 q 60 199 42 264 q 116 86 79 133 q 208 13 153 39 q 339 -14 264 -14 q 540 62 474 -14 q 617 281 606 138 m 139 944 l 222 944 q 264 866 222 892 q 367 840 306 840 q 471 867 428 840 q 514 944 514 893 l 596 944 q 535 816 596 868 q 367 764 475 764 q 199 816 260 764 q 139 944 139 868 z "},"ů":{"ha":736,"x_min":42,"x_max":694,"o":"m 694 694 l 597 694 l 597 0 l 694 0 l 694 694 m 617 281 l 597 404 q 579 244 597 307 q 530 143 561 181 q 457 91 499 106 q 367 76 415 76 q 253 94 297 76 q 183 149 208 113 q 148 239 157 185 q 139 363 139 293 l 139 694 l 42 694 l 42 342 q 60 199 42 264 q 116 86 79 133 q 208 13 153 39 q 339 -14 264 -14 q 540 62 474 -14 q 617 281 606 138 m 231 876 q 267 976 231 939 q 368 1014 304 1014 q 467 976 429 1014 q 506 876 506 939 q 467 776 506 814 q 368 739 429 739 q 267 776 304 739 q 231 876 231 814 m 288 876 q 310 819 288 840 q 368 797 332 797 q 425 819 403 797 q 447 876 447 840 q 425 934 447 913 q 368 956 403 956 q 310 934 332 956 q 288 876 288 913 z "},"ű":{"ha":736,"x_min":42,"x_max":694,"o":"m 694 694 l 597 694 l 597 0 l 694 0 l 694 694 m 617 281 l 597 404 q 579 244 597 307 q 530 143 561 181 q 457 91 499 106 q 367 76 415 76 q 253 94 297 76 q 183 149 208 113 q 148 239 157 185 q 139 363 139 293 l 139 694 l 42 694 l 42 342 q 60 199 42 264 q 116 86 79 133 q 208 13 153 39 q 339 -14 264 -14 q 540 62 474 -14 q 617 281 606 138 m 310 968 l 426 968 l 426 944 l 290 765 l 211 765 l 310 968 m 650 968 l 650 944 l 514 765 l 435 765 l 535 968 l 650 968 z "},"ų":{"ha":736,"x_min":42,"x_max":694,"o":"m 694 694 l 597 694 l 597 0 l 694 0 l 694 694 m 617 281 l 597 404 q 579 244 597 307 q 530 143 561 181 q 457 91 499 106 q 367 76 415 76 q 253 94 297 76 q 183 149 208 113 q 148 239 157 185 q 139 363 139 293 l 139 694 l 42 694 l 42 342 q 60 199 42 264 q 116 86 79 133 q 208 13 153 39 q 339 -14 264 -14 q 540 62 474 -14 q 617 281 606 138 m 639 4 q 669 3 650 4 q 694 1 689 1 q 571 -60 608 -32 q 533 -117 533 -89 q 537 -139 533 -129 q 548 -155 540 -149 q 567 -165 556 -161 q 594 -167 579 -168 l 694 -167 l 694 -264 q 673 -264 694 -264 q 625 -264 651 -264 q 577 -264 599 -264 q 556 -264 556 -264 q 463 -239 493 -264 q 432 -162 432 -214 q 449 -116 432 -139 q 493 -71 465 -93 q 558 -29 521 -49 q 639 4 596 -10 z "},"ŵ":{"ha":1222,"x_min":69,"x_max":1181,"o":"m 806 0 l 893 0 l 671 694 l 583 694 l 806 0 m 814 0 l 903 0 l 1181 694 l 1090 694 l 814 0 m 347 0 l 436 0 l 160 694 l 69 694 l 347 0 m 357 0 l 444 0 l 667 694 l 579 694 l 357 0 m 535 968 l 651 968 l 651 944 l 515 765 l 436 765 l 535 968 m 690 968 l 790 765 l 711 765 l 575 944 l 575 968 l 690 968 z "},"ŷ":{"ha":778,"x_min":42,"x_max":736,"o":"m 347 0 l 431 0 l 125 694 l 42 694 l 347 0 m 347 0 l 431 0 l 736 694 l 653 694 l 347 0 m 374 60 l 301 -107 q 269 -166 282 -151 q 231 -181 257 -181 l 60 -181 l 60 -264 l 214 -264 q 293 -249 265 -264 q 340 -208 321 -235 q 372 -141 358 -181 q 408 -50 386 -101 l 457 60 l 374 60 m 311 968 l 428 968 l 428 944 l 292 765 l 213 765 l 311 968 m 467 968 l 567 765 l 488 765 l 351 944 l 351 968 l 467 968 z "},"ź":{"ha":792,"x_min":42,"x_max":750,"o":"m 718 694 l 42 83 l 42 0 l 74 0 l 750 611 l 750 694 l 718 694 m 42 694 l 42 611 l 750 611 l 750 694 l 42 694 m 750 83 l 42 83 l 42 0 l 750 0 l 750 83 m 413 968 l 528 968 l 528 944 l 392 765 l 313 765 l 413 968 z "},"ż":{"ha":792,"x_min":42,"x_max":750,"o":"m 718 694 l 42 83 l 42 0 l 74 0 l 750 611 l 750 694 l 718 694 m 42 694 l 42 611 l 750 611 l 750 694 l 42 694 m 750 83 l 42 83 l 42 0 l 750 0 l 750 83 m 333 768 l 458 768 l 458 903 l 333 903 l 333 768 z "},"ž":{"ha":792,"x_min":42,"x_max":750,"o":"m 718 694 l 42 83 l 42 0 l 74 0 l 750 611 l 750 694 l 718 694 m 42 694 l 42 611 l 750 611 l 750 694 l 42 694 m 750 83 l 42 83 l 42 0 l 750 0 l 750 83 m 315 765 l 432 765 l 432 789 l 296 968 l 217 968 l 315 765 m 471 765 l 571 968 l 492 968 l 356 789 l 356 765 l 471 765 z "}}}
